<svg width="595.27557" height="841.88977" xmlns="http://www.w3.org/2000/svg">
 <metadata id="metadata109">image/svg+xml</metadata>
 <g>
  <title>Layer 1</title>
  <g stroke="null" id="Layer1000">
   <g stroke="null" id="Layer1002">
    <path stroke="null" fill="#c4c6c8" fill-rule="evenodd" d="m285.087125,64.610332c2.892991,3.406885 5.692967,6.736754 8.403451,10.000725c-23.478573,27.956635 -40.536863,50.898534 -52.522385,75.059406c-12.82565,25.854959 -19.756029,52.908008 -22.385701,88.658202c-0.895992,12.178333 0.432267,28.391072 3.129193,46.770842c2.672519,18.21489 6.688483,38.58705 11.205596,59.265105l0.016271,-0.002712c0.146168,0.68013 0.456674,1.336666 0.935585,1.906424c16.452736,19.576777 29.894787,44.392558 39.13918,72.729664c8.918701,27.336708 13.908488,57.936032 13.908488,90.262526l0.002712,2.747908c-0.008136,0.856399 -0.021695,1.765951 -0.04122,2.722145l0.001627,0l-0.001627,0.086237l0.000814,0.202032l-0.018983,0c0,13.293171 -1.029143,26.28126 -2.958347,38.846302c-2.004593,13.051546 -4.986804,25.670011 -8.799109,37.721701c-3.448648,10.900514 -7.059734,20.86463 -10.859294,29.890177c-3.810136,9.049412 -7.860541,17.301 -12.177791,24.75585l0.005424,0.002169c-0.471318,0.812196 -0.688536,1.780323 -0.558097,2.783975c4.022202,30.935592 7.241428,51.841441 13.650049,70.611445c5.342597,15.650845 12.844904,29.685162 24.772392,46.569081c-1.517275,2.077541 -3.10099,4.20037 -4.754128,6.377978c-1.471445,1.93978 -4.238607,2.320251 -6.178386,0.848806c-0.354438,-0.269286 -0.656537,-0.581147 -0.904941,-0.923382c-16.719853,-22.027467 -26.311904,-38.55966 -32.759576,-57.447358c-6.408621,-18.770004 -9.627847,-39.675854 -13.650049,-70.611717c-0.13044,-1.003381 0.086779,-1.971779 0.558097,-2.783704l-0.005424,-0.002169c4.31725,-7.45485 8.367655,-15.706709 12.177791,-24.75585c3.799289,-9.025548 7.410647,-18.989663 10.859294,-29.890177c3.812305,-12.051962 6.794516,-24.670155 8.799109,-37.721701c1.928932,-12.565042 2.958347,-25.553131 2.958347,-38.846573l0.016271,0l-0.000814,-0.202032l0.001627,-0.085965l-0.001627,0c0.018983,-0.956195 0.032813,-1.866017 0.04122,-2.722145l-0.002712,-2.747908c0,-32.326495 -4.989787,-62.925818 -13.908488,-90.262526c-9.244393,-28.337106 -22.686444,-53.152887 -39.139452,-72.729935c-0.47864,-0.569487 -0.789146,-1.226023 -0.935314,-1.906153l-0.016271,0.002712c-4.516842,-20.677784 -8.532806,-41.049943 -11.205325,-59.264834c-2.696925,-18.37977 -4.025185,-34.592509 -3.129193,-46.771113c2.629672,-35.749922 9.560051,-62.802972 22.385701,-88.65793c12.759481,-25.720994 31.26725,-50.058949 57.149869,-80.537866c1.576935,-1.863306 4.366877,-2.095982 6.230454,-0.519046c0.207998,0.175998 0.396471,0.368268 0.563249,0.571656l0.002441,-0.000271z" id="path69"/>
    <path stroke="null" fill="#c4c6c8" fill-rule="evenodd" d="m439.643322,286.191294c19.252712,0 36.009174,2.552927 50.410946,7.060006c-9.357206,-1.618155 -19.541794,-2.485131 -30.586307,-2.485131c-42.25617,0 -80.404986,24.720053 -107.922303,64.686345c-27.210879,39.520465 -44.041917,94.029273 -44.041917,154.156472c0,14.151197 1.06494,27.997855 3.062753,41.410889c2.078626,13.955674 5.165243,27.43108 9.109343,40.28656c5.445918,17.748454 11.14458,32.938828 17.341406,45.810308c6.256216,12.99514 13.033105,23.618775 20.578802,32.111988c9.074903,10.216046 21.251067,17.868317 34.465866,22.503395c-1.352666,-0.156202 -2.704519,-0.344675 -4.054202,-0.562707c-19.0439,-3.08038 -37.631126,-12.3264 -50.236303,-26.515563c-7.545696,-8.493213 -14.322586,-19.11712 -20.578802,-32.111988c-6.196827,-12.87148 -11.89576,-28.061854 -17.341406,-45.810308c-3.944372,-12.85548 -7.030718,-26.330887 -9.109343,-40.286831c-1.997813,-13.412763 -3.063024,-27.259421 -3.063024,-41.410618c0,-60.127199 16.831309,-114.636007 44.042188,-154.156472c27.517317,-39.966563 65.666133,-64.686345 107.922303,-64.686345zm18.209738,188.99847c-3.480647,-0.228879 -7.038582,-0.610706 -10.670279,-1.156058c-2.417877,-0.354438 -4.09976,-2.663299 -3.755899,-5.156565c0.132609,-0.959992 0.546707,-1.807984 1.143583,-2.46669c6.552891,-8.54745 9.523441,-17.175713 9.542696,-25.063643c0.016271,-6.74272 -2.12988,-13.002733 -6.029235,-18.227365c-3.710069,-4.970532 -9.018497,-9.043175 -15.587388,-11.765049c9.011175,0.010847 17.000528,2.385064 23.468539,6.351402c5.431274,3.331225 9.778897,7.775118 12.731278,12.85548c2.91333,5.01338 4.475079,10.653465 4.38125,16.447041c-0.154033,9.499035 -4.786941,19.54776 -15.224544,28.181447zm-61.590779,142.407423c2.616926,0.061559 5.18287,-0.085423 7.662305,-0.425488c7.601289,-1.043245 14.339399,-3.898 19.148306,-8.053624c4.022202,-3.475224 6.642111,-7.86027 7.145971,-12.801243c0.247862,-2.502486 2.418691,-4.32403 4.846601,-4.068574c0.545893,0.057762 1.154973,0.142643 1.819103,0.250032c5.468698,0.884602 10.163165,3.002007 14.075537,6.047947c-0.497894,0.654367 -0.828738,1.457072 -0.916331,2.345471c-0.504131,4.940973 -3.12404,9.326019 -7.146242,12.801514c-4.808907,4.155353 -11.547017,7.010108 -19.148306,8.053353c-7.768881,1.066567 -16.386567,0.241625 -24.757206,-3.00038c-0.913348,-0.353895 -1.823713,-0.737349 -2.729739,-1.149007z" id="path71"/>
    <path stroke="null" fill="#c4c6c8" fill-rule="evenodd" d="m11.960041,343.044759c15.461559,-31.821008 51.324293,-56.853465 111.64783,-56.853465c11.803286,0 23.287117,1.931373 34.307223,5.582324c-4.82789,-0.663587 -9.722491,-1.007449 -14.673227,-1.007449c-60.146453,0 -95.850816,25.606825 -111.229935,58.25169c-7.040209,14.941699 -9.788117,31.332876 -8.648331,47.412192c1.137075,16.051113 6.155607,31.822364 14.648278,45.553226c6.857702,11.088173 15.966503,20.840494 27.111625,28.332496c-20.774597,-6.978108 -36.867743,-20.530531 -47.475378,-37.25418c-8.407248,-13.255205 -13.352831,-28.510122 -14.437839,-44.065781c-1.086363,-15.559998 1.699782,-31.442435 8.749753,-45.951053zm141.816242,348.942009c-3.287835,-0.298845 -6.526044,-0.801349 -9.685067,-1.515105c-10.089945,-2.279031 -19.426541,-6.704483 -27.062812,-13.488966c-9.17497,-8.150979 -15.814098,-19.625861 -18.263161,-34.766338c-0.170032,-1.050025 -0.314031,-2.113066 -0.430911,-3.178819l-0.016271,-0.133423c-1.152803,-10.746482 0.574368,-21.331337 5.102599,-29.692213c4.718331,-8.710432 12.392026,-15.007054 22.945696,-16.713615c0.663316,-0.106847 1.273209,-0.192269 1.819103,-0.250032c2.427911,-0.255455 4.598739,1.566088 4.84633,4.068574c0.18088,1.775171 0.634571,3.477664 1.329073,5.093379c-4.770127,3.007973 -8.544467,7.278851 -11.306205,12.376569c-4.528231,8.360875 -6.255402,18.945731 -5.102599,29.692213l0.016271,0.133423c0.116609,1.065753 0.260608,2.128795 0.43064,3.178819c2.449063,15.140748 9.088191,26.615359 18.263161,34.766338c5.052159,4.488638 10.847904,7.944337 17.113883,10.429196l0.000271,0zm11.852912,-74.375209c5.993981,0.024407 12.291417,-1.053008 18.454617,-3.440241c11.329798,-4.387487 22.219465,-13.233782 29.985363,-27.846805l0.008136,0.005424c4.901381,-9.499848 8.813753,-20.34938 11.489255,-32.154293l0.03444,-0.167592c2.589265,-11.477051 3.999151,-23.856061 3.999151,-36.77554c0,-23.017289 -5.640086,-49.245125 -17.21395,-70.250228c-8.317215,-15.095731 -19.697182,-27.447894 -34.221258,-33.797126c17.585201,0.905755 31.779788,9.432595 42.688708,22.105297c11.833116,13.746048 19.898672,32.377477 24.330091,51.602799c2.711569,11.762066 4.050405,23.723994 4.050405,34.914133c0,12.919751 -1.409886,25.298489 -3.999151,36.77554l-0.03444,0.167863c-2.675502,11.804642 -6.587874,22.654173 -11.488983,32.154022l-0.008136,-0.005424c-7.765898,14.613024 -18.655564,23.459319 -29.985363,27.846805c-8.370638,3.242005 -16.988325,4.066947 -24.757206,3.00038c-4.897584,-0.671723 -9.435849,-2.096253 -13.331408,-4.135014l-0.000271,0z" id="path73"/>
    <path stroke="null" fill="#ffffff" fill-rule="evenodd" d="m313.692432,71.988165c51.337853,60.454789 73.324642,96.362269 78.497206,166.65209c1.742629,23.677893 -5.245513,63.575575 -14.248281,104.789314c-33.025607,39.296196 -54.103659,98.985433 -54.103659,165.830132c0,1.857882 0.018983,3.709798 0.056135,5.556561l-0.001085,0.201761c0,27.547961 4.354673,53.844407 11.965454,77.901144c6.916549,21.860417 14.64421,40.351373 23.435454,55.528189c-7.968743,61.281629 -12.72504,82.741508 -45.601225,126.039838c-32.876456,-43.29833 -37.632482,-64.758209 -45.601225,-126.039838c8.791245,-15.176815 16.518634,-33.667771 23.435454,-55.528189c7.610509,-24.056737 11.965454,-50.353183 11.965454,-77.901144l-0.001085,-0.201761c0.036881,-1.846763 0.056135,-3.698679 0.056135,-5.556561c0,-66.844699 -21.078052,-126.533936 -54.10393,-165.830132c-9.002497,-41.213738 -15.990639,-81.111421 -14.24801,-104.789314c5.172293,-70.289821 27.159354,-106.197301 78.497206,-166.65209z" id="path75"/>
    <path stroke="null" fill="#1b1918" fill-rule="evenodd" d="m317.111792,69.185207c25.858755,30.454511 44.353779,54.779449 57.104853,80.485257c12.82565,25.854959 19.756029,52.908008 22.386515,88.658202c0.895179,12.178333 -0.433081,28.391885 -3.130006,46.770842c-2.673332,18.214348 -6.689297,38.58705 -11.205325,59.265105c-0.186032,0.859925 -0.610978,1.60785 -1.189684,2.188184c-16.34372,19.532574 -29.701704,44.244763 -38.901081,72.44465c-8.918972,27.336708 -13.908759,57.936032 -13.908759,90.262526l-0.002712,2.747908c0.008136,0.859382 0.021695,1.766764 0.042034,2.722145l-0.000814,0.179795l-0.000814,0.108474l0.018983,0c0,13.292357 1.029415,26.279904 2.958347,38.844675c2.005406,13.051546 4.986804,25.670825 8.799109,37.723329c3.448105,10.900514 7.060006,20.86463 10.859294,29.890177c3.810136,9.049412 7.859727,17.301 12.178605,24.75585c0.541283,0.935585 0.702096,1.986966 0.52908,2.974347c-4.011354,30.831999 -7.23058,51.692019 -13.625643,70.423244c-6.456079,18.90885 -16.060875,35.456501 -32.815982,57.522205c-1.471445,1.939508 -4.238607,2.31998 -6.178386,0.848535c-0.354438,-0.269286 -0.656537,-0.581147 -0.904941,-0.923382c-16.719853,-22.027467 -26.311904,-38.55966 -32.759576,-57.447358c-6.408621,-18.770004 -9.627847,-39.675854 -13.650049,-70.611445c-0.13044,-1.003652 0.08705,-1.971779 0.558097,-2.783975l-0.005424,-0.002169c4.31725,-7.45485 8.367655,-15.706438 12.177791,-24.75585c3.79956,-9.025548 7.410647,-18.989663 10.859294,-29.890177c3.812577,-12.05169 6.794516,-24.670155 8.799109,-37.721701c1.929203,-12.565042 2.958347,-25.553131 2.958347,-38.846302l0.016271,0l-0.000814,-0.202032l0.001627,-0.086237l-0.001627,0c0.018983,-0.956195 0.032813,-1.865746 0.04122,-2.722145l-0.002712,-2.747908c0,-32.326495 -4.989787,-62.925818 -13.908488,-90.262526c-9.244393,-28.337106 -22.686444,-53.152887 -39.13918,-72.729664c-0.478911,-0.569758 -0.789146,-1.226294 -0.935585,-1.906424l-0.016271,0.002712c-4.517113,-20.678055 -8.533077,-41.050214 -11.205596,-59.265105c-2.696925,-18.37977 -4.025185,-34.592509 -3.129193,-46.770842c2.629672,-35.750193 9.560051,-62.803243 22.385701,-88.658202c12.759481,-25.720994 31.267521,-50.058949 57.149869,-80.537866c1.576935,-1.863306 4.366877,-2.095982 6.230454,-0.519046c0.207998,0.175998 0.396471,0.368268 0.56352,0.571656l0.000542,0.000542zm49.178143,84.396815c-11.807354,-23.801824 -28.90361,-46.626843 -52.597231,-74.7489c-23.693622,28.121244 -40.790691,50.946263 -52.597774,74.7489c-12.293587,24.782968 -18.94546,50.83101 -21.486184,85.370095c-0.846365,11.496848 0.448267,27.074473 3.058956,44.866316c2.59035,17.653268 6.482926,37.465704 10.876921,57.643967c16.868461,20.327956 30.623188,45.833088 40.07341,74.800697c9.207783,28.222667 14.359738,59.753778 14.359738,92.996875l-0.032,2.816518c-0.008136,0.988195 -0.024407,1.927576 -0.04122,2.811365l0.000814,0.13044l0.016271,0c0,13.720015 -1.066025,27.149049 -3.063566,40.160731c-2.078626,13.535881 -5.166599,26.605596 -9.110428,39.073012c-3.46763,10.95909 -7.18014,21.172695 -11.170342,30.65112c-3.757526,8.924938 -7.721695,17.076731 -11.915285,24.456734c3.855152,29.531943 6.997904,49.627224 13.076495,67.432084c5.672357,16.616803 13.981165,31.41152 27.952838,50.338539c13.971131,-18.92702 22.279939,-33.721737 27.952838,-50.338539c6.077777,-17.80486 9.2208,-37.900141 13.076495,-67.43127c-4.194404,-7.380003 -8.158572,-15.532609 -11.916098,-24.457547c-3.989931,-9.478425 -7.704068,-19.692572 -11.170342,-30.65112c-3.944372,-12.469043 -7.030989,-25.538758 -9.110157,-39.074367c-1.997813,-13.011953 -3.063837,-26.440174 -3.063837,-40.159375l0.018983,0l0,-0.018983l0.000814,-0.128812c-0.018983,-0.880806 -0.032,-1.817747 -0.04122,-2.795365l-0.032,-2.816518c0,-33.243097 5.151955,-64.774209 14.360009,-92.996875c9.450222,-28.967609 23.204677,-54.47274 40.073138,-74.800697c4.393453,-20.179076 8.286029,-39.990698 10.876921,-57.643967c2.610689,-17.791843 3.905322,-33.369469 3.05977,-44.866316c-2.541266,-34.539085 -9.19341,-60.587127 -21.486726,-85.370095l0,0.001356zm-37.98258,361.251596l-0.000814,0.076203" id="path77"/>
    <path stroke="null" fill="#1b1918" fill-rule="evenodd" d="m313.692432,724.663362l-0.124202,0c-1.97422,-26.826611 -3.127566,-58.189318 -3.076312,-96.205525l0,-383.696415c-0.062372,-76.163668 2.746823,-115.701218 3.016109,-122.207194l0.184405,0l0.184405,0c0.269286,6.505977 3.078481,46.043526 3.015838,122.207194l0,383.696415c0.051254,38.016207 -1.102092,69.378914 -3.076041,96.205525l-0.124202,0z" id="path79"/>
    <path stroke="null" fill="#ffffff" fill-rule="evenodd" d="m471.667718,295.333993c168.111603,0 138.656676,198.355133 8.16264,178.760458c29.188082,-37.630312 -4.943414,-78.670222 -57.552035,-63.057885c-41.321399,12.265655 -61.033496,67.173645 -61.033496,110.770007c0,27.008033 6.026252,51.812696 16.084468,71.286965c26.232176,49.363904 86.318426,37.568754 89.31067,8.261893c20.227076,2.170828 28.955948,23.377421 25.509199,44.68625c-9.486832,58.633788 -86.161681,57.194072 -119.098882,20.118331c-14.495601,-16.317687 -26.172515,-41.098214 -36.950996,-76.227667c-7.61078,-24.802764 -11.965183,-51.918729 -11.965183,-80.322817c0,-118.341194 66.053384,-214.275535 147.533615,-214.275535z" id="path81"/>
    <path stroke="null" fill="#1b1918" fill-rule="evenodd" d="m471.667718,290.766169c60.323536,0 96.186271,25.032457 111.64783,56.853465c7.049972,14.508618 9.836117,30.391054 8.749753,45.951324c-1.085007,15.555388 -6.030591,30.810305 -14.437839,44.06551c-18.126484,28.576562 -52.261505,47.902493 -98.420285,40.972113c-2.417877,-0.354438 -4.09976,-2.663299 -3.755899,-5.156565c0.132609,-0.959992 0.546707,-1.807984 1.143583,-2.46669c6.552891,-8.54745 9.523441,-17.175713 9.542696,-25.063643c0.016271,-6.74272 -2.129608,-13.002733 -6.028964,-18.227365c-3.988575,-5.343411 -9.823913,-9.650084 -17.085951,-12.355145c-10.588652,-3.945186 -24.170092,-4.471283 -39.532669,0.086779c-17.608794,5.227615 -31.101014,18.890681 -40.600049,36.130393c-11.573864,21.005103 -17.21395,47.233211 -17.21395,70.250228c0,12.919751 1.409886,25.298489 3.999151,36.77554l0.03444,0.167863c2.675502,11.804642 6.587874,22.654173 11.489255,32.154022l0.008136,-0.005424c7.765898,14.613024 18.655564,23.459319 29.985363,27.846805c8.370638,3.242005 16.988325,4.066947 24.757206,3.00038c7.601289,-1.043245 14.339399,-3.898 19.148306,-8.053353c4.022202,-3.475495 6.642111,-7.860541 7.146242,-12.801514c0.247591,-2.502486 2.418419,-4.32403 4.84633,-4.068574c0.545893,0.058033 1.154973,0.142643 1.819103,0.250032c10.55367,1.706561 18.226551,8.00237 22.945696,16.713615c4.528231,8.360875 6.255402,18.945731 5.102599,29.692213l-0.016271,0.133423c-0.11688,1.065753 -0.260879,2.128795 -0.430911,3.178819c-2.449063,15.140748 -9.088191,26.615359 -18.263161,34.766338c-7.636272,6.784483 -16.972867,11.209935 -27.062812,13.488966c-9.912319,2.238896 -20.607818,2.404318 -31.152268,0.697757c-19.0439,-3.08038 -37.630855,-12.3264 -50.236303,-26.515563c-7.545696,-8.493213 -14.322586,-19.116848 -20.578802,-32.111988c-6.196827,-12.87148 -11.895488,-28.061854 -17.341135,-45.810308c-3.944372,-12.85548 -7.030989,-26.330887 -9.109615,-40.28656c-1.997542,-13.413034 -3.062753,-27.259692 -3.062753,-41.410889c0,-60.127199 16.831038,-114.636007 44.041917,-154.156472c27.517317,-39.966292 65.666133,-64.686345 107.922303,-64.686345l-0.000271,0.000814zm103.754747,60.922039c-14.083944,-28.984423 -47.330566,-51.785849 -103.754747,-51.785849c-39.22379,0 -74.843273,23.247524 -100.721282,60.83282c-26.185532,38.03058 -42.381457,90.660353 -42.381457,148.873806c0,13.703472 1.029415,27.095897 2.95916,40.054969c2.004593,13.458051 4.98599,26.468377 8.798295,38.894572c5.332292,17.379372 10.862548,32.148056 16.821275,44.526252c5.900151,12.25535 12.211418,22.183669 19.160509,30.005973c11.220782,12.630668 27.905652,20.88307 45.077569,23.660808c9.450222,1.528664 19.040917,1.380869 27.933042,-0.62752c8.712059,-1.967983 16.706836,-5.729305 23.151254,-11.454814c7.672068,-6.81594 13.238934,-16.503177 15.321356,-29.377097c0.145626,-0.901416 0.268472,-1.795781 0.363658,-2.674959l0.013559,-0.137219c0.957009,-8.920328 -0.404878,-17.576794 -4.028981,-24.267447c-3.038346,-5.61134 -7.733084,-9.84154 -14.035131,-11.591491c-1.587511,5.439681 -4.854737,10.204385 -9.325206,14.06713c-6.06015,5.237649 -14.394992,8.812939 -23.683588,10.087775c-9.123716,1.253413 -19.224509,0.291252 -29.014795,-3.500715c-13.149172,-5.091752 -25.736993,-15.263323 -34.624508,-31.986972l0.008136,-0.005424l-0.027118,-0.048813c-5.278598,-10.221198 -9.480052,-21.829231 -12.331552,-34.396443l-0.046644,-0.186846c-2.747094,-12.173994 -4.24159,-25.250489 -4.24159,-38.844946c0,-24.409548 6.02571,-52.305708 18.39116,-74.747273c10.571839,-19.187356 25.78201,-34.452307 45.861291,-40.412661c17.24134,-5.115345 32.718356,-4.437656 44.967468,0.126643c8.870159,3.304649 16.067926,8.65728 21.066119,15.353356c5.087413,6.816753 7.886303,14.986715 7.865151,23.795045c-0.018983,7.887117 -2.306692,16.243111 -7.249834,24.523716c38.578643,3.419902 67.064629,-13.465373 82.503408,-37.804684c7.582035,-11.954335 12.040301,-25.701197 13.017919,-39.711921c0.977347,-14.008283 -1.509682,-28.2647 -7.814711,-41.240586l0.000814,0.000814z" id="path83"/>
    <path stroke="null" fill="#1b1918" fill-rule="evenodd" d="m334.605875,465.809236c-9.049683,32.098971 -7.871117,67.01663 0.123389,98.600622c36.750863,145.187873 156.972176,116.654701 135.565178,40.248323c13.990114,72.265668 -94.254085,93.829681 -128.577307,-41.754751c-7.754237,-30.635933 -8.91626,-64.440652 -0.178981,-95.431837c11.080309,-51.197922 62.386433,-122.42604 125.610283,-115.928199c64.368517,7.530781 76.663731,74.239074 36.466933,112.335823c50.809857,-34.734067 32.184937,-122.949425 -48.376252,-119.626607c-56.023371,2.321607 -106.678653,60.293706 -120.633242,121.556624z" id="path85"/>
    <path stroke="null" fill="#ffffff" fill-rule="evenodd" d="m155.632266,295.333993c-168.111332,0 -138.656676,198.355133 -8.16264,178.760458c-29.188082,-37.630312 4.943414,-78.670222 57.552035,-63.057885c41.321399,12.265655 61.033496,67.173645 61.033496,110.770007c0,27.008033 -6.026252,51.812696 -16.084468,71.286965c-26.231904,49.363904 -86.318426,37.568754 -89.31067,8.261893c-20.227076,2.170828 -28.955948,23.377421 -25.508928,44.68625c9.48656,58.633788 86.16141,57.194072 119.098611,20.118331c14.495601,-16.317687 26.172786,-41.098214 36.951268,-76.227667c7.610509,-24.802764 11.964911,-51.918729 11.964911,-80.322817c0,-118.341194 -66.053384,-214.275535 -147.533615,-214.275535z" id="path87"/>
    <path stroke="null" fill="#1b1918" fill-rule="evenodd" d="m155.632266,299.90236c-56.423909,0 -89.670803,22.801426 -103.754747,51.785849c-6.304758,12.975886 -8.792058,27.232302 -7.814711,41.240586c0.977619,14.010724 5.435884,27.757586 13.017919,39.711921c15.43905,24.340124 43.924765,41.224586 82.503408,37.804684c-4.943143,-8.280605 -7.23058,-16.636599 -7.249563,-24.523716c-0.021695,-8.808329 2.777738,-16.978291 7.86488,-23.795045c4.998193,-6.696077 12.19596,-12.048707 21.066119,-15.353356c12.249384,-4.564299 27.726129,-5.241988 44.967468,-0.126643c20.079552,5.960354 35.289452,21.225304 45.861291,40.412661c12.36545,22.441565 18.391431,50.337726 18.391431,74.747273c0,13.594456 -1.494495,26.670951 -4.241861,38.844946l-0.046372,0.186846c-2.851771,12.567211 -7.053226,24.175245 -12.331824,34.396443l-0.027118,0.048813l0.008136,0.005424c-8.887515,16.723649 -21.475336,26.895221 -34.624508,31.986972c-9.790287,3.791967 -19.891621,4.753314 -29.014795,3.500715c-9.288596,-1.274836 -17.623438,-4.850127 -23.683588,-10.087775c-4.470469,-3.862746 -7.737695,-8.627449 -9.325206,-14.06713c-6.302046,1.749951 -10.996513,5.980151 -14.035131,11.591491c-3.624104,6.690653 -4.98599,15.347119 -4.028981,24.267447l0.013559,0.137219c0.095186,0.879179 0.218032,1.773544 0.363658,2.674959c2.082422,12.87392 7.649289,22.561157 15.321356,29.377097c6.444689,5.725509 14.439195,9.486832 23.151525,11.454814c8.892125,2.008389 18.482549,2.156184 27.932771,0.62752c17.171916,-2.777738 33.856786,-11.03014 45.077569,-23.660808c6.948549,-7.822304 13.260358,-17.750623 19.160509,-30.005973c5.957914,-12.378196 11.489255,-27.146879 16.821275,-44.526252c3.812305,-12.426196 6.793703,-25.436522 8.798295,-38.894572c1.929746,-12.959072 2.95916,-26.351497 2.95916,-40.054969c0,-58.213453 -16.195925,-110.843226 -42.381186,-148.873806c-25.87828,-37.585296 -61.496949,-60.83282 -100.721553,-60.83282l0.000814,-0.000814zm-111.64783,47.717274c15.461559,-31.821008 51.324565,-56.853465 111.64783,-56.853465c42.255356,0 80.404986,24.720053 107.922303,64.686345c27.210879,39.520465 44.042188,94.029273 44.042188,154.156472c0,14.151197 -1.065211,27.997855 -3.063024,41.410889c-2.078626,13.955674 -5.164971,27.43108 -9.109343,40.28656c-5.445647,17.748454 -11.145393,32.938015 -17.341406,45.810308c-6.256216,12.995682 -13.033919,23.618775 -20.578802,32.111988c-12.605177,14.189163 -31.192403,23.435183 -50.236303,26.515563c-10.544449,1.706561 -21.239948,1.541139 -31.152268,-0.697757c-10.089945,-2.279031 -19.426541,-6.704483 -27.062812,-13.488966c-9.17497,-8.150979 -15.814098,-19.62559 -18.263161,-34.766338c-0.170032,-1.050025 -0.314031,-2.113066 -0.43064,-3.178819l-0.016271,-0.133423c-1.153075,-10.746482 0.574097,-21.331337 5.102328,-29.692213c4.718331,-8.710432 12.392026,-15.007054 22.945696,-16.713615c0.663316,-0.106575 1.273209,-0.191998 1.819103,-0.250032c2.427911,-0.255455 4.598739,1.566088 4.846601,4.068574c0.50386,4.940973 3.123769,9.326019 7.145971,12.801514c4.808907,4.155353 11.547017,7.010108 19.148306,8.053353c7.768881,1.066567 16.386567,0.241625 24.757206,-3.00038c11.329798,-4.387487 22.219465,-13.233782 29.985363,-27.846805l0.008136,0.005424c4.901109,-9.499848 8.813482,-20.34938 11.488983,-32.154022l0.03444,-0.167863c2.589265,-11.477051 3.999151,-23.85579 3.999151,-36.77554c0,-23.017017 -5.640086,-49.245125 -17.21395,-70.250228c-9.499035,-17.239712 -22.991255,-30.902778 -40.600049,-36.130393c-15.362576,-4.558062 -28.944016,-4.031964 -39.532669,-0.086779c-7.261224,2.705061 -13.097376,7.011735 -17.08568,12.355145c-3.899355,5.224632 -6.045235,11.484645 -6.029235,18.227365c0.018983,7.88793 2.989804,16.516193 9.542696,25.063643c0.596876,0.658706 1.010974,1.506699 1.143583,2.46669c0.343861,2.493266 -1.338022,4.802127 -3.755899,5.156565c-46.15878,6.93038 -80.293801,-12.395552 -98.420285,-40.972113c-8.407248,-13.255205 -13.35256,-28.510122 -14.437568,-44.06551c-1.086634,-15.56027 1.69951,-31.442706 8.749482,-45.951324l0,-0.000814z" id="path89"/>
    <path stroke="null" fill="#1b1918" fill-rule="evenodd" d="m292.69438,465.809236c9.049412,32.098971 7.871117,67.01663 -0.12366,98.600622c-36.750863,145.187873 -156.972176,116.654701 -135.565178,40.248323c-13.990114,72.265668 94.254085,93.829681 128.577307,-41.754751c7.754237,-30.635933 8.91626,-64.440652 0.179253,-95.431837c-11.08058,-51.197922 -62.386704,-122.42604 -125.610283,-115.928199c-64.368789,7.530781 -76.664002,74.239074 -36.467204,112.335823c-50.809857,-34.734067 -32.184937,-122.949425 48.376252,-119.626607c56.023371,2.321607 106.678924,60.293706 120.633513,121.556624z" id="path91"/>
    <path stroke="null" fill="#1b1918" fill-rule="evenodd" d="m210.721408,597.376348c11.814676,-13.202595 19.4081,-18.287568 37.123198,-20.713851c20.218127,-2.188998 40.569134,0.517962 60.690177,2.43686c30.312953,2.764993 52.942991,3.964168 83.168623,-2.663841c17.590896,-4.475893 30.293157,-9.968726 45.488141,-19.823554c16.799581,-11.55922 27.763281,-25.819976 39.891445,-42.006138c-21.009171,-14.767327 -42.018613,-29.536282 -63.028055,-44.303338c-6.219064,8.299045 -11.830947,14.41967 -20.449447,20.346668c-6.856618,4.447418 -12.414806,6.786381 -20.351278,8.804533c-19.300169,4.232098 -37.675058,2.558622 -57.151225,0.781281c-27.73562,-2.645943 -49.890815,-2.145879 -78.049753,0.899246c-16.742361,2.295302 -29.244759,5.783271 -44.499404,13.091139c-16.961478,8.729415 -28.189582,17.789131 -40.811572,31.896397l57.97915,51.254599z" id="path93"/>
    <path stroke="null" fill="#ffffff" fill-rule="evenodd" d="m183.404496,566.363197c8.436265,-8.761685 15.759319,-14.451127 26.651426,-20.038061c11.19963,-5.359953 20.33338,-7.818236 32.624255,-9.501747c24.427717,-2.642417 45.656818,-0.024407 69.846435,2.287166c24.745816,2.254895 44.838927,0.674977 69.445354,-4.721586c12.498059,-3.179091 21.433574,-7.009294 32.229411,-14.010724c11.246003,-7.721152 18.753733,-15.23512 27.161523,-25.853331l-26.121261,-18.778411c-6.05554,7.646848 -11.140512,12.800701 -19.241051,18.358889c-7.314919,4.742738 -13.264968,7.256614 -21.731876,9.410629c-19.942333,4.3723 -38.466373,2.717535 -58.580907,0.885958c-27.328302,-2.610418 -49.364717,-2.117405 -77.095998,0.883246c-16.233348,2.223438 -28.327886,5.586663 -43.119891,12.672973c-14.612753,7.494171 -24.56358,15.131528 -35.881989,26.885458c7.939184,7.173903 15.877284,14.346721 23.81457,21.519539z" id="path95"/>
    <path stroke="null" fill="#e30016" fill-rule="evenodd" d="m210.352326,590.711457c5.151141,-5.353716 9.552729,-8.876668 16.206772,-12.287892c7.087938,-3.397123 12.966937,-4.845788 20.746936,-5.912083c20.547616,-2.222624 41.194484,0.469962 61.644745,2.422758c29.751331,2.711298 52.077914,3.942745 81.738127,-2.561062c17.06046,-4.341928 29.369775,-9.659034 44.107543,-19.218814c14.77248,-10.136046 25.665672,-23.398302 36.708015,-37.342044l-26.747968,-18.760784c-8.713415,11.003022 -16.506973,18.781123 -28.160837,26.783764c-11.264714,7.302986 -20.570937,11.294816 -33.610009,14.615193c-25.213879,5.527816 -45.527463,7.136208 -70.874494,4.824093c-23.769553,-2.266556 -44.904825,-4.897313 -68.893494,-2.301268c-11.769117,1.61463 -20.518328,3.948982 -31.242572,9.083852c-10.402078,5.337716 -17.379101,10.766549 -25.437064,19.136916c7.937286,7.171733 15.876199,14.343738 23.814299,21.51737z" id="path97"/>
   </g>
  </g>
  <path fill="none" d="m504,99l0,841.8898l595.2756,0l0,-841.8898l-595.2756,0z" id="path101"/>
 </g>
</svg>