<?xml version="1.0" encoding="UTF-8" standalone="no"?>
<svg
   xmlns:dc="http://purl.org/dc/elements/1.1/"
   xmlns:cc="http://creativecommons.org/ns#"
   xmlns:rdf="http://www.w3.org/1999/02/22-rdf-syntax-ns#"
   xmlns:svg="http://www.w3.org/2000/svg"
   xmlns="http://www.w3.org/2000/svg"
   viewBox="0 0 595.27557 841.88977"
   id="svg103"
   height="841.88977"
   width="595.27557"
   version="1.1">
  <metadata
     id="metadata109">
    <rdf:RDF>
      <cc:Work
         rdf:about="">
        <dc:format>image/svg+xml</dc:format>
        <dc:type
           rdf:resource="http://purl.org/dc/dcmitype/StillImage" />
      </cc:Work>
    </rdf:RDF>
  </metadata>
  <defs
     id="defs107" />
  <g
     id="Layer1000">
    <g
       id="Layer1001">
      <path
         id="path2"
         style="fill:#1b1918;fill-rule:evenodd"
         d="m 190.8906,546.1324 -4.7291,7.6243 -4.455,0.8783 c 0.0891,-0.9369 0.1498,-1.8485 0.1498,-2.6946 0,-0.3161 -0.0278,-0.8176 -0.0607,-1.5045 l -0.0891,-1.5073 c -0.0328,-0.6639 -0.1548,-2.1028 -0.1865,-4.4244 l -4.5491,9.1939 -4.7597,0.9369 c 0.3364,-2.571 0.4934,-5.2092 0.4934,-7.8704 0,-2.8882 -0.0925,-4.0837 -1.02,-4.0837 -0.344,0 -0.9959,0.3779 -1.9158,1.0068 l -0.466,-1.5406 c 2.5355,-1.9109 4.2686,-3.1999 5.5374,-3.1999 1.9125,0 2.5644,1.8234 2.5644,5.2453 0,1.5362 -0.1542,3.2573 -0.3374,5.1398 2.0705,-4.2319 3.7068,-7.1852 4.0514,-9.3433 l 4.9828,-0.7257 c -0.0323,0.566 -0.0646,1.2245 -0.0646,1.976 0,0.595 0.093,1.7905 0.1832,3.6396 l 0.0351,0.6901 c 0.0612,1.0348 0.1788,2.4802 0.2149,4.2965 1.9491,-3.4504 3.1518,-5.5166 3.1518,-6.6175 0,-0.723 -0.3079,-1.2212 -0.985,-1.6276 l 1.0506,-1.318 c 0.6803,-0.8794 1.2704,-1.3552 2.1012,-1.3552 0.9319,0 1.5471,0.694 1.5471,1.7949 0,1.405 -0.9871,3.0391 -2.4451,5.3903 z" />
      <path
         id="path4"
         style="fill:#1b1918;fill-rule:evenodd"
         d="m 197.9713,554.6667 c -1.4827,0 -2.5037,-1.1955 -2.5037,-3.1972 0,-2.887 1.7342,-6.058 1.7342,-7.9404 0,-0.595 -0.3446,-0.9073 -0.8346,-0.9073 -0.3079,0 -0.8679,0.2505 -1.7348,0.5956 l -0.5261,-1.5034 2.1958,-1.1595 c 1.766,-0.9445 3.0627,-1.6051 4.2407,-1.6051 1.2655,0 2.1958,0.9696 2.1958,2.6081 0,1.1584 -0.5879,2.8838 -1.2677,5.4231 -0.4053,1.5072 -0.6191,2.4441 -0.6191,2.851 0,0.6032 0.3396,0.9445 0.741,0.9445 0.4047,0 0.9598,-0.4031 1.7938,-1.1256 l 0.5595,1.6309 c -2.7826,2.1613 -4.671,3.3853 -5.9748,3.3853 z m 4.7673,-19.5166 -1.9191,0.9483 -1.143,-1.0692 c -0.7416,-0.6896 -1.2716,-1.2201 -1.2716,-1.9759 0,-0.9112 0.6197,-1.5647 1.859,-2.1969 l 1.9486,-1.0063 1.4509,1.3842 c 0.6191,0.566 0.9302,1.0314 0.9302,1.819 0,0.8149 -0.6185,1.5078 -1.855,2.0968 z" />
      <path
         id="path6"
         style="fill:#1b1918;fill-rule:evenodd"
         d="m 214.9853,541.5225 c -2.1029,0 -4.2987,3.6397 -4.2987,7.5915 0,1.224 0.4009,1.8524 1.1748,1.8524 0.5228,0 1.7019,-0.7875 3.4958,-2.3867 0.4621,-2.3538 0.8668,-4.5152 1.2042,-6.4583 -0.5556,-0.3806 -1.0495,-0.5989 -1.5761,-0.5989 z m 7.0555,10.6968 c -1.1742,1.0058 -2.1991,1.6971 -3.0659,2.0706 -0.7739,0.3451 -1.5188,1.1627 -1.6079,2.2592 -0.0924,1.0687 0.4337,1.7588 1.3,1.7588 0.6809,0 1.2393,-0.3779 1.9513,-1.1009 l 1.1441,1.1622 c -1.5515,1.8813 -3.0336,2.8225 -4.5174,2.8225 -2.3215,0 -3.6817,-1.5663 -3.499,-3.5739 0.1219,-1.3476 0.6809,-2.5431 1.9513,-3.7632 -0.4041,-0.4726 -0.6191,-1.1628 -0.6191,-2.0422 0,-0.2209 0.0328,-0.5627 0.0607,-0.9729 -2.4714,2.4189 -4.327,3.7665 -6.0317,3.7665 -2.1597,0 -3.679,-1.6959 -3.679,-4.5797 0,-2.6049 1.0216,-5.2092 2.8767,-7.3088 2.1635,-2.4151 5.0714,-3.7993 7.5144,-3.7993 1.085,0 1.9814,0.2833 2.8805,0.8827 l 3.3672,-0.8504 c -1.2004,6.3063 -1.8561,9.8835 -1.8561,10.7597 0,0.6639 0.2548,1.0019 0.6557,1.0019 0.4299,0 0.956,-0.4687 1.819,-1.1223 l 0.4982,1.6599 z" />
      <path
         id="path8"
         style="fill:#1b1918;fill-rule:evenodd"
         d="m 229.9845,549.3651 c 2.2882,0.3451 3.8677,0.5666 4.7356,0.5666 1.7867,0 2.3817,-0.5048 2.5633,-2.419 l 1.5794,0.2543 c -0.5556,4.7985 -1.4892,6.8981 -4.6377,6.8981 -2.2926,0 -4.8575,-1.061 -7.2103,-1.061 -1.2671,0 -2.2565,0.3741 -3.1561,1.3109 l -1.2032,-1.253 c 2.5967,-2.35 5.6593,-5.6735 9.556,-9.6254 -1.9809,-0.2871 -3.37,-0.4725 -4.1116,-0.4725 -1.4258,0 -1.9842,0.5015 -2.2598,2.0667 l -1.673,-0.2794 0.2183,-1.2568 c 0.6519,-3.7348 1.8589,-5.2092 4.2411,-5.2092 2.5037,0 4.9779,1.1955 6.6471,1.1955 1.0221,0 1.9207,-0.5015 2.7875,-1.5072 l 1.2639,1.2857 c -3.0293,3.1053 -6.2505,6.1532 -9.3405,9.5057 z" />
      <path
         id="path10"
         style="fill:#1b1918;fill-rule:evenodd"
         d="m 248.2618,541.3979 c -1.3639,0 -2.321,1.7544 -2.6289,5.1758 2.7225,-1.3837 4.1438,-2.0077 4.1438,-3.4788 0,-0.9445 -0.6513,-1.697 -1.5149,-1.697 z m 1.6079,5.1113 -4.3298,1.8851 v 0.2833 c 0,1.7829 0.5841,2.6038 1.9158,2.6038 1.0211,0 2.5721,-0.9773 4.8576,-2.6989 l 0.6191,1.7905 c -3.0009,2.8236 -5.4767,4.2937 -7.9837,4.2937 -2.9374,0 -4.8203,-2.1351 -4.8203,-5.5209 0,-2.3823 0.9882,-5.0195 2.6896,-6.9954 1.8228,-2.1034 4.1439,-3.2333 6.5223,-3.2333 2.8838,0 4.7668,1.8239 4.7668,3.8283 0,1.9185 -1.4258,2.5436 -4.2374,3.7638 z" />
      <path
         id="path12"
         style="fill:#1b1918;fill-rule:evenodd"
         d="m 266.3237,542.4993 c -0.8668,0 -1.948,0.904 -3.7725,2.1942 l -0.4643,2.7563 c 3.4301,-0.0618 5.4799,-1.6926 5.4799,-3.5734 0,-0.8466 -0.4982,-1.3771 -1.2431,-1.3771 z m 2.4107,12.1975 c -1.9743,0 -3.5821,-1.8814 -5.2874,-5.6446 -0.5261,0.1193 -1.0785,0.1854 -1.7014,0.2183 l -0.1815,1.0675 c -0.0979,0.5338 -0.2839,1.6024 -0.466,3.2004 l -5.51,0.9413 c 0.7777,-3.673 1.4914,-7.3706 2.1389,-11.1048 l 0.4616,-2.6328 c 0.6492,-3.7347 1.085,-5.9579 1.085,-6.7164 0,-0.9741 -0.3117,-1.2863 -1.2988,-1.2863 -0.1586,0 -0.4622,0 -0.932,0.0618 l -0.0897,-1.6599 c 2.7192,-0.1274 5.4444,-0.4397 8.2309,-0.974 -0.6869,3.9202 -1.271,6.5568 -1.522,7.941 l -0.7985,4.4528 c 2.6535,-2.1969 4.2051,-3.6429 5.9382,-3.6429 1.7955,0 3.4925,1.6052 3.4925,3.7993 0,2.2264 -1.5395,3.9519 -4.4233,4.7323 1.7336,2.4819 2.6656,3.7676 3.5893,3.7676 0.4009,0 0.992,-0.3779 1.8829,-1.0385 l 0.5634,1.4454 c -2.1384,2.0377 -3.8114,3.0725 -5.1721,3.0725 z" />
      <path
         id="path14"
         style="fill:#1b1918;fill-rule:evenodd"
         d="m 319.4844,541.5225 c -2.1028,0 -4.2942,3.6397 -4.2942,7.5915 0,1.224 0.4008,1.8524 1.1676,1.8524 0.5261,0 1.7041,-0.7875 3.4991,-2.3867 0.4654,-2.3538 0.8706,-4.5152 1.2037,-6.4583 -0.559,-0.3806 -1.0501,-0.5989 -1.5762,-0.5989 z m 7.0534,10.6968 c -1.9464,1.6353 -3.5253,2.4485 -4.4501,2.4485 -1.5861,0 -2.5109,-1.0058 -2.5109,-2.8554 0,-0.2209 0.029,-0.5627 0.0586,-0.9729 -2.4687,2.4189 -4.3276,3.7665 -6.029,3.7665 -2.1625,0 -3.6785,-1.6959 -3.6785,-4.5797 0,-2.6049 1.0211,-5.2092 2.8756,-7.3088 2.1646,-2.4151 5.073,-3.7993 7.5188,-3.7993 1.0779,0 1.9808,0.2833 2.8761,0.8827 l 3.3705,-0.8504 c -1.2037,6.3063 -1.8512,9.8835 -1.8512,10.7597 0,0.6639 0.2428,1.0019 0.6475,1.0019 0.4293,0 0.9565,-0.4687 1.8239,-1.1223 l 0.4944,1.6599 z" />
      <path
         id="path16"
         style="fill:#1b1918;fill-rule:evenodd"
         d="m 340.7336,544.4402 c -0.7132,-0.6617 -1.2994,-0.974 -1.7003,-0.974 -1.1468,0 -2.0706,1.1584 -3.4652,3.3886 -0.6152,2.1985 -1.0199,4.4572 -1.2994,6.7132 l -5.5663,0.8794 c 1.5767,-6.3714 2.2215,-9.9421 2.2215,-10.6979 0,-0.595 -0.2084,-0.8783 -0.6448,-0.8783 -0.373,0 -0.9921,0.4096 -1.953,1.0057 l -0.4616,-1.5985 c 2.851,-2.0411 4.5743,-3.294 5.7523,-3.294 1.2688,0 1.9814,0.875 1.9814,2.5059 0,0.7558 -0.1876,1.9114 -0.4632,3.4547 2.3817,-3.8611 3.8332,-5.9606 5.3804,-5.9606 1.1457,0 1.8868,0.7224 1.8868,1.8452 0,1.0386 -0.6224,2.1351 -1.6686,3.6106 z" />
      <path
         id="path18"
         style="fill:#1b1918;fill-rule:evenodd"
         d="m 355.5529,543.248 -1.2114,0.9084 c -0.8668,-1.4126 -1.7008,-2.1285 -2.7219,-2.1285 -1.5428,0 -2.6896,2.321 -2.6896,6.2368 0,1.8562 0.5868,2.793 1.7621,2.793 1.0167,0 2.228,-0.974 4.1444,-2.6005 l 0.8056,1.8808 c -2.7865,2.7936 -4.979,4.3298 -7.3635,4.3298 -2.9095,0 -5.0118,-2.2303 -5.0118,-5.7424 0,-2.6339 1.0856,-5.1108 3.1234,-7.119 1.9169,-1.9109 4.2729,-2.8882 6.8056,-2.8882 2.3571,0 3.7151,1.003 3.7151,2.3211 0,0.7229 -0.495,1.3519 -1.358,2.0087 z" />
      <path
         id="path20"
         style="fill:#1b1918;fill-rule:evenodd"
         d="m 366.0621,541.3979 c -1.365,0 -2.3177,1.7544 -2.6289,5.1758 2.7186,-1.3837 4.1378,-2.0077 4.1378,-3.4788 0,-0.9445 -0.6448,-1.697 -1.5089,-1.697 z m 1.6046,5.1113 -4.3298,1.8851 v 0.2833 c 0,1.7829 0.583,2.6038 1.9153,2.6038 1.0248,0 2.5726,-0.9773 4.8581,-2.6989 l 0.619,1.7905 c -3.0019,2.8236 -5.4771,4.2937 -7.977,4.2937 -2.9407,0 -4.8286,-2.1351 -4.8286,-5.5209 0,-2.3823 0.9888,-5.0195 2.6913,-6.9954 1.8294,-2.1034 4.1433,-3.2333 6.5294,-3.2333 2.8718,0 4.7635,1.8239 4.7635,3.8283 0,1.9185 -1.4225,2.5436 -4.2412,3.7638 z" />
      <path
         id="path22"
         style="fill:#1b1918;fill-rule:evenodd"
         d="m 385.5492,544.4402 c -0.7137,-0.6617 -1.3011,-0.974 -1.7025,-0.974 -1.1463,0 -2.0733,1.1584 -3.4668,3.3886 -0.612,2.1985 -1.0178,4.4572 -1.2967,6.7132 l -5.5658,0.8794 c 1.5751,-6.3714 2.2199,-9.9421 2.2199,-10.6979 0,-0.595 -0.2133,-0.8783 -0.6448,-0.8783 -0.3719,0 -0.9872,0.4096 -1.9513,1.0057 l -0.466,-1.5985 c 2.8488,-2.0411 4.5819,-3.294 5.7534,-3.294 1.2704,0 1.9841,0.875 1.9841,2.5059 0,0.7558 -0.1865,1.9114 -0.4659,3.4547 2.385,-3.8611 3.8397,-5.9606 5.3793,-5.9606 1.1468,0 1.8879,0.7224 1.8879,1.8452 0,1.0386 -0.6153,2.1351 -1.6648,3.6106 z" />
      <path
         id="path24"
         style="fill:#1b1918;fill-rule:evenodd"
         d="m 400.5468,543.4022 -1.113,0.7881 c -1.2966,-1.9469 -2.1925,-2.9822 -3.6139,-2.9822 -0.9308,0 -1.6122,0.6612 -1.6122,1.4717 0,0.9472 0.8313,1.3836 2.4752,1.9212 3.0331,0.9697 4.7318,1.6889 4.7318,4.2319 0,3.1381 -3.0626,5.8661 -7.7337,5.8661 -3.4055,0 -5.4121,-1.381 -5.4121,-3.0769 0,-0.8132 0.3659,-1.3191 1.1463,-1.849 l 1.2967,-0.9112 c 1.393,2.3249 2.7219,3.4832 4.3271,3.4832 0.9882,0 1.7369,-0.694 1.7369,-1.5034 0,-1.254 -1.3333,-1.4755 -3.3421,-2.227 -2.6902,-1.003 -3.9579,-2.1974 -3.9579,-4.239 0,-2.9789 2.8723,-5.4925 7.329,-5.4925 3.09,0 4.9215,1.2891 4.9215,2.7679 0,0.6907 -0.4058,1.2212 -1.1796,1.7511 z" />
      <path
         id="path26"
         style="fill:#1b1918;fill-rule:evenodd"
         d="m 415.1446,541.8047 c -0.8997,0 -1.5516,-0.0289 -1.9481,-0.0289 h -1.7347 c -0.7739,3.7949 -1.2677,6.3702 -1.2677,7.8129 0,0.9697 0.3336,1.4712 0.8991,1.4712 0.4621,0 1.2639,-0.665 2.6289,-1.7588 l 0.5836,1.7293 c -2.7859,2.3177 -4.5131,3.7632 -6.1215,3.7632 -1.9508,0 -3.3125,-1.5981 -3.3125,-4.4895 0,-1.976 0.5879,-4.7662 1.5471,-8.5283 h -2.35 l 0.3735,-1.7261 c 1.0173,-0.0902 1.8229,-0.4397 2.6612,-1.0642 0.279,-0.8794 0.5508,-1.7621 0.8909,-2.6082 l 4.8904,-1.5078 c -0.402,1.7293 -0.7421,3.2984 -0.9921,4.7121 0.9921,0 2.2303,-0.0372 3.714,-0.0979 z" />
      <path
         id="path28"
         style="fill:#1b1918;fill-rule:evenodd"
         d="m 437.1589,546.1324 -4.7323,7.6243 -4.4523,0.8783 c 0.093,-0.9369 0.1537,-1.8485 0.1537,-2.6946 0,-0.3161 -0.0279,-0.8176 -0.0607,-1.5045 l -0.093,-1.5073 c -0.0323,-0.6639 -0.1531,-2.1028 -0.186,-4.4244 l -4.5491,9.1939 -4.7602,0.9369 c 0.3369,-2.571 0.4939,-5.2092 0.4939,-7.8704 0,-2.8882 -0.0963,-4.0837 -1.02,-4.0837 -0.3407,0 -0.9959,0.3779 -1.9201,1.0068 l -0.4665,-1.5406 c 2.5441,-1.9109 4.2745,-3.1999 5.5384,-3.1999 1.9196,0 2.5682,1.8234 2.5682,5.2453 0,1.5362 -0.1536,3.2573 -0.3374,5.1398 2.0706,-4.2319 3.7074,-7.1852 4.0514,-9.3433 l 4.9779,-0.7257 c -0.0312,0.566 -0.0607,1.2245 -0.0607,1.976 0,0.595 0.0935,1.7905 0.1876,3.6396 l 0.0317,0.6901 c 0.0612,1.0348 0.1832,2.4802 0.2144,4.2965 1.9453,-3.4504 3.1556,-5.5166 3.1556,-6.6175 0,-0.723 -0.3118,-1.2212 -0.9921,-1.6276 l 1.0533,-1.318 c 0.6815,-0.8794 1.2716,-1.3552 2.1023,-1.3552 0.9314,0 1.5472,0.694 1.5472,1.7949 0,1.405 -0.9888,3.0391 -2.4452,5.3903 z" />
      <path
         id="path30"
         style="fill:#1b1918;fill-rule:evenodd"
         d="m 450.2423,541.5225 c -2.0989,0 -4.2986,3.6397 -4.2986,7.5915 0,1.224 0.4014,1.8524 1.1748,1.8524 0.5277,0 1.7025,-0.7875 3.493,-2.3867 0.4687,-2.3538 0.8701,-4.5152 1.2103,-6.4583 -0.5557,-0.3806 -1.0566,-0.5989 -1.5795,-0.5989 z m 7.0523,10.6968 c -1.9442,1.6353 -3.5248,2.4485 -4.4518,2.4485 -1.5767,0 -2.5069,-1.0058 -2.5069,-2.8554 0,-0.2209 0.0322,-0.5627 0.0634,-0.9729 -2.478,2.4189 -4.3298,3.7665 -6.0306,3.7665 -2.1712,0 -3.6861,-1.6959 -3.6861,-4.5797 0,-2.6049 1.0243,-5.2092 2.8761,-7.3088 2.1701,-2.4151 5.0747,-3.7993 7.5215,-3.7993 1.0818,0 1.9776,0.2833 2.8772,0.8827 l 3.37,-0.8504 c -1.2075,6.3063 -1.8551,9.8835 -1.8551,10.7597 0,0.6639 0.2429,1.0019 0.6476,1.0019 0.4304,0 0.9603,-0.4687 1.8266,-1.1223 l 0.4917,1.6599 z" />
      <path
         id="path32"
         style="fill:#1b1918;fill-rule:evenodd"
         d="m 290.6093,530.0683 3.359,0.4906 -1.7867,8.8991 c 2.647,1.6669 5.8174,1.2562 9.4887,0.5589 l 2.6978,-8.449 c 1.615,-0.8756 2.6175,-1.0134 4.6377,-0.5376 0.7241,4.6207 -0.0721,8.4709 -0.9423,13.825 -0.7339,4.4277 -1.4821,7.9913 -1.7517,12.6039 l -0.4938,1.3262 -1.3859,1.1736 c -1.2573,-0.2986 -2.1597,0.2762 -3.1774,-0.4867 -1.7479,-2.2417 -1.0567,-4.4747 -0.384,-7.5773 l 0.8816,-5.3503 -0.4692,-2.0815 -9.521,0.5043 -1.8403,6.2007 c -0.8422,0.1422 -1.1676,-0.3812 -1.7369,-0.3232 -1.1469,-0.0104 -1.5904,-0.1526 -2.454,-0.7662 -1.0101,-3.883 0.1608,-6.9812 0.8877,-11.4171 0.3117,-2.9746 1.2688,-4.7618 1.802,-8.0339 0.7842,-0.2904 1.3,-0.4107 2.1887,-0.5595 z" />
      <path
         id="path34"
         style="fill:#1b1918;fill-rule:evenodd"
         d="m 203.3391,592.5454 c 2.2926,0.3418 3.8643,0.5666 4.7274,0.5666 1.8025,0 2.3855,-0.5048 2.572,-2.4189 l 1.5795,0.2576 c -0.5584,4.7952 -1.486,6.8947 -4.6416,6.8947 -2.2887,0 -4.8537,-1.061 -7.207,-1.061 -1.2688,0 -2.256,0.3741 -3.1512,1.3153 l -1.2147,-1.2535 c 2.6071,-2.3576 5.6664,-5.6811 9.5631,-9.633 -1.9809,-0.2833 -3.3706,-0.4687 -4.1116,-0.4687 -1.4219,0 -1.9809,0.4971 -2.2609,2.0667 l -1.6718,-0.2795 0.2187,-1.2567 c 0.6443,-3.7304 1.8545,-5.2049 4.2368,-5.2049 2.5037,0 4.9784,1.1912 6.6509,1.1912 1.0177,0 1.9196,-0.5015 2.7831,-1.5073 l 1.2656,1.2891 c -3.031,3.102 -6.244,6.146 -9.3383,9.5023 z" />
      <path
         id="path36"
         style="fill:#1b1918;fill-rule:evenodd"
         d="m 221.6159,584.5793 c -1.3613,0 -2.3211,1.7534 -2.6301,5.1759 2.7198,-1.381 4.1482,-2.0055 4.1482,-3.48 0,-0.9445 -0.6524,-1.6959 -1.5181,-1.6959 z m 1.6084,5.1102 -4.332,1.889 v 0.2795 c 0,1.7872 0.5885,2.6049 1.9207,2.6049 1.0216,0 2.5682,-0.9774 4.8526,-2.7001 l 0.6208,1.7878 c -3.0014,2.8264 -5.4734,4.2937 -7.9804,4.2937 -2.9374,0 -4.8253,-2.1323 -4.8253,-5.5138 0,-2.3867 0.9927,-5.0238 2.6897,-6.9998 1.8283,-2.0995 4.1515,-3.2288 6.5294,-3.2288 2.8767,0 4.7646,1.8151 4.7646,3.8282 0,1.9098 -1.4258,2.5393 -4.2401,3.7594 z" />
      <path
         id="path38"
         style="fill:#1b1918;fill-rule:evenodd"
         d="m 241.0384,586.4284 -1.2026,0.9122 c -0.8712,-1.4137 -1.7014,-2.1324 -2.7192,-2.1324 -1.5499,0 -2.6962,2.3211 -2.6962,6.2407 0,1.8523 0.5863,2.7892 1.7654,2.7892 1.0199,0 2.2275,-0.974 4.1477,-2.6005 l 0.7984,1.8851 c -2.7793,2.7892 -4.9784,4.3227 -7.3601,4.3227 -2.9079,0 -5.0107,-2.2231 -5.0107,-5.7397 0,-2.6366 1.085,-5.114 3.1222,-7.119 1.9164,-1.9141 4.2702,-2.8838 6.8024,-2.8838 2.3527,0 3.7183,0.9987 3.7183,2.3167 0,0.723 -0.4982,1.3519 -1.3656,2.0088 z" />
      <path
         id="path40"
         style="fill:#1b1918;fill-rule:evenodd"
         d="m 249.6034,592.5454 c 2.2898,0.3418 3.8649,0.5666 4.7312,0.5666 1.7955,0 2.3856,-0.5048 2.5688,-2.4189 l 1.5794,0.2576 c -0.5595,4.7952 -1.4897,6.8947 -4.6382,6.8947 -2.2959,0 -4.8609,-1.061 -7.2098,-1.061 -1.2726,0 -2.2532,0.3741 -3.1556,1.3153 l -1.2075,-1.2535 c 2.5999,-2.3576 5.6625,-5.6811 9.563,-9.633 -1.9879,-0.2833 -3.3738,-0.4687 -4.1187,-0.4687 -1.4186,0 -1.9775,0.4971 -2.2559,2.0667 l -1.6697,-0.2795 0.2144,-1.2567 c 0.6486,-3.7304 1.8562,-5.2049 4.2374,-5.2049 2.5042,0 4.9822,1.1912 6.6513,1.1912 1.0211,0 1.9207,-0.5015 2.787,-1.5073 l 1.2645,1.2891 c -3.0304,3.102 -6.2505,6.146 -9.3416,9.5023 z" />
      <path
         id="path42"
         style="fill:#1b1918;fill-rule:evenodd"
         d="m 268.8717,596.657 c -4.1444,5.8338 -7.3038,8.8444 -10.1482,8.8444 -1.8223,0 -2.9041,-0.9368 -2.9041,-2.1323 0,-0.7843 0.4332,-1.1611 1.0211,-1.6626 l 1.0489,-0.9084 c 0.8062,1.0709 1.4504,1.5942 2.3501,1.5942 2.1345,0 3.4678,-2.4118 3.4678,-7.2425 0,-5.8344 -0.6841,-8.9396 -1.7987,-8.9396 -0.4939,0 -1.0818,0.5343 -1.9163,1.598 l -0.863,-1.3798 c 2.2565,-2.6667 3.6822,-4.2647 5.5652,-4.2647 2.5037,0 3.1884,2.9789 3.1884,9.2267 0,0.5261 -0.035,1.7861 -0.1258,3.7922 2.3823,-4.2981 3.8939,-7.0282 3.8939,-8.6924 0,-0.6536 -0.3658,-1.1266 -1.0779,-1.5045 l 0.834,-1.125 c 0.8067,-1.1009 1.4225,-1.7588 2.3818,-1.7588 0.9609,0 1.6084,0.7197 1.6084,1.9469 0,1.6927 -2.0449,6.2697 -6.5256,12.6082 z" />
      <path
         id="path44"
         style="fill:#1b1918;fill-rule:evenodd"
         d="m 287.1529,585.8344 c -0.6475,0 -1.6396,0.944 -3.306,2.4731 l -0.9631,5.4313 c 0.9631,1.0063 1.8556,1.4744 2.5037,1.4744 1.6407,0 3.1266,-3.2617 3.1266,-6.9347 0,-1.6625 -0.3402,-2.4441 -1.3612,-2.4441 z m 4.2051,8.6892 c -1.6369,2.0404 -3.7742,3.1342 -5.8136,3.1342 -1.0855,0 -2.0448,-0.3122 -3.0648,-0.9702 l -0.6486,4.2352 c -0.0941,0.5671 -0.1252,0.974 -0.1252,1.1627 0,1.0933 0.4971,1.3766 1.8594,1.3766 0.2461,0 0.4966,-0.0323 0.8045,-0.0323 l -0.3079,1.7249 c -2.1668,-0.1553 -3.8677,-0.2505 -5.0429,-0.2505 -1.4258,0 -3.1556,0.0952 -5.1688,0.2188 l 0.2828,-1.6932 c 0.2444,0.0323 0.4626,0.0323 0.6776,0.0323 1.5756,0 1.8556,-0.7848 2.1958,-2.9823 l 1.4252,-9.5641 c 0.2434,-1.5691 0.6158,-3.1671 1.1107,-4.7367 l -3.1238,1.7878 -0.3408,-1.5362 c 2.4758,-1.4756 4.7931,-3.2951 7.0244,-5.5538 l 1.8846,0.6639 c -0.4621,1.6276 -0.7421,2.9139 -0.9248,3.8507 l -0.1859,0.8827 c 2.4112,-2.4774 3.8326,-4.1126 6.0596,-4.1126 2.2253,0 3.9951,2.0705 3.9951,5.3038 0,2.321 -0.9319,5.0238 -2.5726,7.0583 z" />
      <path
         id="path46"
         style="fill:#1b1918;fill-rule:evenodd"
         d="m 304.5973,584.6427 c -2.134,0 -3.714,3.1343 -3.714,7.4313 0,2.1942 0.6448,3.2617 2.1307,3.2617 2.0454,0 3.5921,-3.0692 3.5921,-7.8704 0,-1.8206 -0.7411,-2.8226 -2.0088,-2.8226 z m -2.6,13.2394 c -4.3024,0 -6.8373,-2.3566 -6.8373,-6.3052 0,-5.0528 4.6054,-9.4444 10.3008,-9.4444 4.209,0 6.8046,2.4807 6.8046,6.3385 0,4.9506 -4.2041,9.4111 -10.2681,9.4111 z" />
      <path
         id="path48"
         style="fill:#1b1918;fill-rule:evenodd"
         d="m 326.121,586.5859 -1.1135,0.7848 c -1.2999,-1.947 -2.1958,-2.9779 -3.6215,-2.9779 -0.927,0 -1.6046,0.6568 -1.6046,1.4706 0,0.9451 0.8313,1.3804 2.4747,1.9136 3.0347,0.974 4.7323,1.6932 4.7323,4.2363 0,3.1343 -3.0626,5.866 -7.7326,5.866 -3.3968,0 -5.4165,-1.3798 -5.4165,-3.0724 0,-0.8177 0.3763,-1.3224 1.1502,-1.8497 l 1.2999,-0.9111 c 1.3897,2.321 2.7187,3.4794 4.3233,3.4794 0.9882,0 1.7331,-0.6902 1.7331,-1.5034 0,-1.2574 -1.329,-1.4756 -3.3377,-2.227 -2.6946,-1.003 -3.9618,-2.1975 -3.9618,-4.239 0,-2.979 2.88,-5.4882 7.3285,-5.4882 3.0916,0 4.9248,1.2891 4.9248,2.7602 0,0.6902 -0.4047,1.2245 -1.1786,1.7578 z" />
      <path
         id="path50"
         style="fill:#1b1918;fill-rule:evenodd"
         d="m 339.9461,585.8344 c -0.6525,0 -1.6418,0.944 -3.3104,2.4731 l -0.9636,5.4313 c 0.9636,1.0063 1.8594,1.4744 2.5037,1.4744 1.6434,0 3.1233,-3.2617 3.1233,-6.9347 0,-1.6625 -0.3369,-2.4441 -1.353,-2.4441 z m 4.2012,8.6892 c -1.6379,2.0404 -3.7697,3.1342 -5.814,3.1342 -1.0818,0 -2.0449,-0.3122 -3.0627,-0.9702 l -0.6448,4.2352 c -0.0995,0.5671 -0.1285,0.974 -0.1285,1.1627 0,1.0933 0.4977,1.3766 1.8546,1.3766 0.2482,0 0.4993,-0.0323 0.8066,-0.0323 l -0.3073,1.7249 c -2.1685,-0.1553 -3.8688,-0.2505 -5.0441,-0.2505 -1.4257,0 -3.1517,0.0952 -5.1654,0.2188 l 0.2767,-1.6932 c 0.2499,0.0323 0.4682,0.0323 0.6842,0.0323 1.5756,0 1.8545,-0.7848 2.1947,-2.9823 l 1.4225,-9.5641 c 0.2472,-1.5691 0.6169,-3.1671 1.114,-4.7367 l -3.1272,1.7878 -0.3429,-1.5362 c 2.478,-1.4756 4.7952,-3.2951 7.0233,-5.5538 l 1.8873,0.6639 c -0.4588,1.6276 -0.7339,2.9139 -0.9231,3.8507 l -0.1876,0.8827 c 2.4107,-2.4774 3.8403,-4.1126 6.0651,-4.1126 2.216,0 3.9896,2.0705 3.9896,5.3038 0,2.321 -0.9314,5.0238 -2.571,7.0583 z" />
      <path
         id="path52"
         style="fill:#1b1918;fill-rule:evenodd"
         d="m 357.3883,584.6427 c -2.1411,0 -3.7178,3.1343 -3.7178,7.4313 0,2.1942 0.6486,3.2617 2.1356,3.2617 2.0378,0 3.5888,-3.0692 3.5888,-7.8704 0,-1.8206 -0.7411,-2.8226 -2.0066,-2.8226 z m -2.6,13.2394 c -4.3046,0 -6.8373,-2.3566 -6.8373,-6.3052 0,-5.0528 4.6055,-9.4444 10.3003,-9.4444 4.2062,0 6.7996,2.4807 6.7996,6.3385 0,4.9506 -4.1975,9.4111 -10.2626,9.4111 z" />
      <path
         id="path54"
         style="fill:#1b1918;fill-rule:evenodd"
         d="m 372.6933,593.0174 c 0,0.4681 0.3401,0.8789 0.712,0.8789 0.2149,0 0.8029,-0.221 1.2316,-0.5962 l 0.5305,-0.4714 0.4616,1.5691 -0.9921,0.8138 c -2.1312,1.7571 -3.7752,2.6338 -4.7596,2.6338 -1.486,0 -2.6251,-1.2502 -2.6251,-3.2918 0,-1.5034 0.7377,-4.0136 1.3929,-7.6237 l 0.426,-2.3506 c 0.7455,-4.0788 1.3038,-6.5272 1.3038,-7.4323 0,-0.8784 -0.3401,-1.1945 -1.3038,-1.1945 -0.2433,0 -0.5512,0.0323 -0.8914,0.0618 l -0.1001,-1.6893 c 2.822,-0.1597 5.5729,-0.4758 8.2303,-0.9473 -2.2893,11.8885 -3.6166,18.4152 -3.6166,19.6397 z" />
      <path
         id="path56"
         style="fill:#1b1918;fill-rule:evenodd"
         d="m 380.6659,597.8454 c -1.4859,0 -2.508,-1.1884 -2.508,-3.1961 0,-2.8881 1.7375,-6.0558 1.7375,-7.9338 0,-0.5989 -0.3397,-0.9122 -0.8346,-0.9122 -0.3112,0 -0.8696,0.2472 -1.7331,0.5961 l -0.5267,-1.504 2.1914,-1.1616 c 1.7698,-0.945 3.0638,-1.6019 4.2456,-1.6019 1.2639,0 2.1925,0.9697 2.1925,2.6038 0,1.1627 -0.5846,2.8838 -1.2688,5.4274 -0.4047,1.5073 -0.6158,2.4441 -0.6158,2.8548 0,0.5923 0.3402,0.9402 0.7411,0.9402 0.4019,0 0.9598,-0.4064 1.791,-1.1294 l 0.5595,1.6309 c -2.7804,2.1684 -4.6721,3.3858 -5.9716,3.3858 z m 4.7646,-19.5133 -1.918,0.9445 -1.1413,-1.0648 c -0.746,-0.693 -1.2716,-1.2234 -1.2716,-1.976 0,-0.9111 0.6197,-1.569 1.8546,-2.1969 l 1.9529,-1.003 1.4537,1.3766 c 0.6169,0.5671 0.9286,1.0358 0.9286,1.8233 0,0.8138 -0.6213,1.5045 -1.8589,2.0963 z" />
      <path
         id="path58"
         style="fill:#1b1918;fill-rule:evenodd"
         d="m 399.3819,584.9851 c -0.8997,0 -1.5477,-0.029 -1.9524,-0.029 h -1.731 c -0.7689,3.7949 -1.2677,6.3703 -1.2677,7.8086 0,0.9741 0.3407,1.4756 0.8997,1.4756 0.4659,0 1.271,-0.6612 2.6289,-1.7545 l 0.5901,1.7249 c -2.7892,2.3216 -4.5196,3.7632 -6.1285,3.7632 -1.9514,0 -3.312,-1.598 -3.312,-4.4894 0,-1.9727 0.5879,-4.7619 1.5471,-8.5284 h -2.3538 l 0.3768,-1.7216 c 1.0178,-0.099 1.8223,-0.4436 2.6612,-1.0719 0.2756,-0.8751 0.5578,-1.7545 0.8953,-2.6049 l 4.886,-1.5073 c -0.4015,1.7293 -0.7416,3.2989 -0.9888,4.7072 0.9888,0 2.2204,-0.0285 3.7112,-0.0903 z" />
      <path
         id="path60"
         style="fill:#1b1918;fill-rule:evenodd"
         d="m 408.6261,584.5793 c -1.3574,0 -2.3216,1.7534 -2.6289,5.1759 2.7181,-1.381 4.1438,-2.0055 4.1438,-3.48 0,-0.9445 -0.6519,-1.6959 -1.5149,-1.6959 z m 1.6041,5.1102 -4.326,1.889 v 0.2795 c 0,1.7872 0.5792,2.6049 1.9152,2.6049 1.0216,0 2.5694,-0.9774 4.8581,-2.7001 l 0.6158,1.7878 c -2.9948,2.8264 -5.4739,4.2937 -7.9803,4.2937 -2.9374,0 -4.8291,-2.1323 -4.8291,-5.5138 0,-2.3867 0.9937,-5.0238 2.694,-6.9998 1.8305,-2.0995 4.145,-3.2288 6.5262,-3.2288 2.8766,0 4.764,1.8151 4.764,3.8282 0,1.9098 -1.4225,2.5393 -4.2379,3.7594 z" />
      <path
         id="path62"
         style="fill:#1b1918;fill-rule:evenodd"
         d="m 424.1509,586.8085 -1.1414,5.9245 c -0.6568,3.3235 -1.114,6.1488 -2.8154,8.507 -1.9202,2.6656 -4.9144,4.2319 -7.3317,4.2319 -2.1646,0 -3.4723,-1.0686 -3.4723,-2.2302 0,-0.7816 0.3118,-1.1556 0.9391,-1.661 l 1.1107,-0.9111 c 0.9888,1.3219 1.8551,2.0088 2.6929,2.0088 1.6659,0 2.1887,-2.1368 3.0266,-6.4004 l 0.5277,-2.6989 c 0.7088,-3.6686 1.084,-5.8294 1.084,-6.5524 0,-0.723 -0.3107,-1.1266 -0.6831,-1.1266 -0.2767,0 -0.8028,0.2182 -1.609,0.5633 l -0.4938,-1.5073 1.9158,-1.003 c 2.0421,-1.0675 3.406,-1.8195 4.4238,-1.8195 1.271,0 2.1028,0.8756 2.1028,2.3828 0,0.5661 -0.0891,1.318 -0.2767,2.2921 z m 0.1876,-8.4742 -1.9169,0.9445 -1.1468,-1.0681 c -0.7411,-0.6908 -1.271,-1.2213 -1.271,-1.9727 0,-0.9155 0.6262,-1.5723 1.8589,-2.1974 l 1.9524,-1.0058 1.4504,1.3799 c 0.6196,0.566 0.9232,1.0358 0.9232,1.8233 0,0.8105 -0.6153,1.5045 -1.8502,2.0963 z" />
      <path
         id="path64"
         style="fill:#1b1918;fill-rule:evenodd"
         d="m 182.6789,577.2902 c -0.9423,2.5147 -1.2398,4.2177 -1.6161,6.8182 2.9653,0.7892 6.6908,0.9773 9.0047,-2.2658 0.356,-1.2978 0.1225,-2.2822 -0.5693,-3.4329 z m -3.8004,-4.653 c 3.2015,1.3591 6.4326,0.5086 10.3052,0.7198 2.9303,0.0328 5.6128,0.4976 6.9511,3.3338 0.4812,1.1988 0.5704,2.0165 0.3194,2.9861 -0.029,1.1408 -0.4933,2.7318 -1.0884,3.5893 -1.7626,1.877 -4.3954,3.044 -7.6899,4.192 -0.7175,0.4167 -1.0856,0.7115 -1.0714,1.6007 1.1567,0.9156 1.8195,1.8065 2.7651,3.0195 l 2.2095,2.4113 c 0.4627,0.6076 0.688,0.7454 1.5734,1.3448 l 2.3424,1.6625 c 2.6038,1.9585 6.3178,3.0621 10.3293,3.393 l -0.4332,0.7525 c -4.7241,0.9801 -9.1911,1.3766 -13.277,-0.4539 -4.9866,-2.4485 -7.7742,-6.2046 -11.1152,-9.8075 l -0.863,0.4424 -2.729,7.556 c -1.2579,0.257 -2.215,0.1925 -3.7178,0.2171 -0.4764,0.0328 -0.8423,-0.0503 -1.2934,-0.4386 0.6584,-8.9145 3.0232,-16.4518 4.5381,-25.6528 z" />
      <path
         id="path66"
         style="fill:#1b1918;fill-rule:evenodd"
         d="m 160.8155,532.5797 8.3162,-0.0542 c 1.4553,1.0572 1.7418,2.2445 0.4331,4.315 -1.2743,1.7802 -2.8072,3.2437 -4.6957,4.7116 l -3.7096,2.782 c -2.5649,1.7578 -5.294,2.466 -7.0845,5.416 7.5609,1.5767 15.4225,1.3656 21.9372,5.3071 1.0533,0.7257 1.4553,1.5143 1.7348,2.4009 -0.3402,0.624 -2.3041,0.6973 -4.0115,0.5551 l -6.6159,-0.3812 c -5.2611,-0.6568 -9.3426,-4.2532 -14.4025,-2.3867 -2.4753,0.9199 -7.4975,1.8381 -11.0824,1.7988 -1.569,-0.0985 -3.837,0.5594 -4.5491,-1.1048 -0.175,-0.3303 -0.3008,-0.5633 -0.2253,-0.9335 -0.0399,-0.3123 0.1187,-0.5447 0.3369,-0.8898 2.239,-1.5762 4.0432,-3.6254 7.2704,-5.376 0.7126,-0.6755 1.6079,-0.868 2.7827,-2.0416 3.9152,-2.9199 6.9882,-4.8198 11.5231,-7.5915 l 0.0427,-0.3008 c -0.2937,-0.1274 -0.4901,-0.1969 -0.7651,-0.3057 -4.8319,0.029 -11.1004,-0.6207 -12.9107,-1.1988 -1.2846,-1.6413 -2.2877,-3.592 0.6995,-4.8926 z" />
    </g>
    <g
       id="Layer1002">
      <path
         id="path69"
         style="fill:#c4c6c8;fill-rule:evenodd"
         d="m 286.7738,236.9848 c 1.0668,1.2563 2.0993,2.4842 3.0988,3.6878 -8.6578,10.3091 -14.9481,18.769 -19.3678,27.6784 -4.7295,9.5341 -7.2851,19.51 -8.2548,32.693 -0.3304,4.4908 0.1594,10.4693 1.1539,17.2469 0.9855,6.7168 2.4664,14.2291 4.1321,21.8542 l 0.006,-0.001 c 0.0539,0.2508 0.1684,0.4929 0.345,0.703 6.067,7.219 11.0238,16.3699 14.4327,26.8193 3.2888,10.0805 5.1288,21.3641 5.1288,33.2846 l 0.001,1.0133 c -0.003,0.3158 -0.008,0.6512 -0.0152,1.0038 h 6e-4 l -6e-4,0.0318 3e-4,0.0745 h -0.007 c 0,4.9019 -0.3795,9.6913 -1.0909,14.3247 -0.7392,4.8128 -1.8389,9.4659 -3.2447,13.91 -1.2717,4.0196 -2.6033,7.6939 -4.0044,11.0221 -1.405,3.337 -2.8986,6.3798 -4.4906,9.1288 l 0.002,8e-4 c -0.1738,0.2995 -0.2539,0.6565 -0.2058,1.0266 1.4832,11.4076 2.6703,19.1167 5.0335,26.0382 1.9701,5.7713 4.7366,10.9465 9.1349,17.1725 -0.5595,0.7661 -1.1435,1.5489 -1.7531,2.3519 -0.5426,0.7153 -1.563,0.8556 -2.2783,0.313 -0.1307,-0.0993 -0.2421,-0.2143 -0.3337,-0.3405 -6.1655,-8.1227 -9.7026,-14.219 -12.0802,-21.1839 -2.3632,-6.9215 -3.5503,-14.6306 -5.0335,-26.0383 -0.0481,-0.37 0.032,-0.7271 0.2058,-1.0265 l -0.002,-8e-4 c 1.592,-2.749 3.0856,-5.7919 4.4906,-9.1288 1.401,-3.3282 2.7327,-7.0025 4.0044,-11.0221 1.4058,-4.4442 2.5055,-9.0972 3.2447,-13.91 0.7113,-4.6334 1.0909,-9.4228 1.0909,-14.3248 h 0.006 l -3e-4,-0.0745 6e-4,-0.0317 h -6e-4 c 0.007,-0.3526 0.0121,-0.6881 0.0152,-1.0038 l -0.001,-1.0133 c 0,-11.9205 -1.84,-23.2041 -5.1288,-33.2846 -3.4089,-10.4494 -8.3657,-19.6003 -14.4328,-26.8194 -0.1765,-0.21 -0.291,-0.4521 -0.3449,-0.7029 l -0.006,0.001 c -1.6656,-7.625 -3.1465,-15.1373 -4.132,-21.8541 -0.9945,-6.7776 -1.4843,-12.7561 -1.1539,-17.247 0.9697,-13.1829 3.5253,-23.1588 8.2548,-32.6929 4.7051,-9.4847 11.5299,-18.4594 21.0742,-29.6986 0.5815,-0.6871 1.6103,-0.7729 2.2975,-0.1914 0.0767,0.0649 0.1462,0.1358 0.2077,0.2108 z" />
      <path
         id="path71"
         style="fill:#c4c6c8;fill-rule:evenodd"
         d="m 343.7669,318.6935 c 7.0995,0 13.2785,0.9414 18.5892,2.6034 -3.4505,-0.5967 -7.2061,-0.9164 -11.2788,-0.9164 -15.5821,0 -29.6496,9.1156 -39.7967,23.8533 -10.0341,14.5733 -16.2406,34.6736 -16.2406,56.8457 0,5.2183 0.3927,10.3243 1.1294,15.2704 0.7665,5.1462 1.9047,10.1153 3.3591,14.8558 2.0082,6.5448 4.1096,12.1463 6.3947,16.8927 2.307,4.792 4.806,8.7095 7.5885,11.8414 3.3464,3.7672 7.8364,6.589 12.7094,8.2982 -0.4988,-0.0576 -0.9973,-0.1271 -1.495,-0.2075 -7.0225,-1.1359 -13.8766,-4.5454 -18.5248,-9.7777 -2.7825,-3.1319 -5.2815,-7.0495 -7.5885,-11.8414 -2.2851,-4.7464 -4.3866,-10.3479 -6.3947,-16.8927 -1.4545,-4.7405 -2.5926,-9.7096 -3.3591,-14.8559 -0.7367,-4.946 -1.1295,-10.052 -1.1295,-15.2703 0,-22.1721 6.2066,-42.2724 16.2407,-56.8457 10.1471,-14.7378 24.2146,-23.8533 39.7967,-23.8533 z m 6.7149,69.6938 c -1.2835,-0.0844 -2.5955,-0.2252 -3.9347,-0.4263 -0.8916,-0.1307 -1.5118,-0.9821 -1.385,-1.9015 0.0489,-0.354 0.2016,-0.6667 0.4217,-0.9096 2.4164,-3.1519 3.5118,-6.3336 3.5189,-9.2423 0.006,-2.4864 -0.7854,-4.7948 -2.2233,-6.7214 -1.3681,-1.8329 -3.3256,-3.3347 -5.7479,-4.3384 3.3229,0.004 6.269,0.8795 8.6541,2.3421 2.0028,1.2284 3.606,2.8671 4.6947,4.7405 1.0743,1.8487 1.6502,3.9285 1.6156,6.0649 -0.0568,3.5028 -1.7652,7.2083 -5.6141,10.392 z M 327.77,440.9005 c 0.965,0.0227 1.9112,-0.0315 2.8255,-0.1569 2.803,-0.3847 5.2877,-1.4374 7.061,-2.9698 1.4832,-1.2815 2.4493,-2.8985 2.6351,-4.7205 0.0914,-0.9228 0.8919,-1.5945 1.7872,-1.5003 0.2013,0.0213 0.4259,0.0526 0.6708,0.0922 2.0166,0.3262 3.7477,1.107 5.1904,2.2302 -0.1836,0.2413 -0.3056,0.5373 -0.3379,0.8649 -0.1859,1.822 -1.152,3.439 -2.6352,4.7206 -1.7733,1.5323 -4.258,2.585 -7.061,2.9697 -2.8648,0.3933 -6.0426,0.0891 -9.1293,-1.1064 -0.3368,-0.1305 -0.6725,-0.2719 -1.0066,-0.4237 z" />
      <path
         id="path73"
         style="fill:#c4c6c8;fill-rule:evenodd"
         d="m 186.0573,339.6584 c 5.7015,-11.7341 18.926,-20.9649 41.1705,-20.9649 4.3525,0 8.5872,0.7122 12.6509,2.0585 -1.7803,-0.2447 -3.5852,-0.3715 -5.4108,-0.3715 -22.1792,0 -35.3453,9.4426 -41.0164,21.4805 -2.5961,5.5098 -3.6094,11.5541 -3.1891,17.4834 0.4193,5.9189 2.2699,11.7346 5.4016,16.7979 2.5288,4.0888 5.8877,7.685 9.9975,10.4477 -7.6607,-2.5732 -13.5951,-7.5707 -17.5067,-13.7376 -3.1002,-4.8879 -4.9239,-10.5132 -5.324,-16.2494 -0.4006,-5.7378 0.6268,-11.5945 3.2265,-16.9446 z m 52.2952,128.6735 c -1.2124,-0.1102 -2.4065,-0.2955 -3.5714,-0.5587 -3.7207,-0.8404 -7.1636,-2.4723 -9.9795,-4.9741 -3.3833,-3.0057 -5.8315,-7.2371 -6.7346,-12.8202 -0.0627,-0.3872 -0.1158,-0.7792 -0.1589,-1.1722 l -0.006,-0.0492 c -0.4251,-3.9628 0.2118,-7.866 1.8816,-10.9491 1.7399,-3.212 4.5696,-5.5339 8.4613,-6.1632 0.2446,-0.0394 0.4695,-0.0709 0.6708,-0.0922 0.8953,-0.0942 1.6958,0.5775 1.7871,1.5003 0.0667,0.6546 0.234,1.2824 0.4901,1.8782 -1.759,1.1092 -3.1508,2.6841 -4.1692,4.5639 -1.6698,3.0831 -2.3067,6.9863 -1.8816,10.9491 l 0.006,0.0492 c 0.043,0.393 0.0961,0.785 0.1588,1.1722 0.9031,5.5832 3.3513,9.8145 6.7346,12.8202 1.863,1.6552 4.0002,2.9295 6.3108,3.8458 z m 4.3708,-27.4261 c 2.2103,0.009 4.5325,-0.3883 6.8052,-1.2686 4.1779,-1.6179 8.1935,-4.88 11.0572,-10.2686 l 0.003,0.002 c 1.8074,-3.5031 3.2501,-7.5039 4.2367,-11.857 l 0.0127,-0.0618 c 0.9548,-4.2322 1.4747,-8.797 1.4747,-13.5611 0,-8.4877 -2.0798,-18.1593 -6.3477,-25.905 -3.067,-5.5666 -7.2634,-10.1215 -12.6192,-12.4628 6.4846,0.334 11.7189,3.4783 15.7416,8.1514 4.3635,5.0689 7.3377,11.9393 8.9718,19.0287 0.9999,4.3373 1.4936,8.7483 1.4936,12.8747 0,4.7642 -0.5199,9.3289 -1.4747,13.5611 l -0.0127,0.0619 c -0.9866,4.353 -2.4293,8.3538 -4.2366,11.8569 l -0.003,-0.002 c -2.8637,5.3886 -6.8793,8.6507 -11.0572,10.2686 -3.0867,1.1955 -6.2645,1.4997 -9.1293,1.1064 -1.806,-0.2477 -3.4795,-0.773 -4.916,-1.5248 z" />
      <path
         id="path75"
         style="fill:#ffffff;fill-rule:evenodd"
         d="m 297.3221,239.7054 c 18.931,22.2929 27.0387,35.5339 28.9461,61.4535 0.6426,8.7313 -1.9343,23.4437 -5.2541,38.6414 -12.1783,14.4906 -19.9509,36.5012 -19.9509,61.1504 0,0.6851 0.007,1.368 0.0207,2.049 l -4e-4,0.0744 c 0,10.1584 1.6058,19.8553 4.4123,28.7263 2.5505,8.0611 5.4001,14.8797 8.6419,20.4762 -2.9385,22.5978 -4.6924,30.5112 -16.8156,46.4776 -12.1233,-15.9664 -13.8771,-23.8798 -16.8156,-46.4776 3.2418,-5.5965 6.0913,-12.4151 8.6419,-20.4762 2.8064,-8.871 4.4123,-18.5679 4.4123,-28.7263 l -4e-4,-0.0744 c 0.0136,-0.681 0.0207,-1.3639 0.0207,-2.049 0,-24.6492 -7.7726,-46.6598 -19.951,-61.1504 -3.3197,-15.1977 -5.8966,-29.9101 -5.254,-38.6414 1.9073,-25.9196 10.0151,-39.1606 28.9461,-61.4535 z" />
      <path
         id="path77"
         style="fill:#1b1918;fill-rule:evenodd"
         d="m 298.583,238.6718 c 9.5355,11.2302 16.3556,20.2001 21.0576,29.6792 4.7295,9.5341 7.2851,19.51 8.2551,32.693 0.3301,4.4908 -0.1597,10.4696 -1.1542,17.2469 -0.9858,6.7166 -2.4667,14.2291 -4.132,21.8542 -0.0686,0.3171 -0.2253,0.5929 -0.4387,0.8069 -6.0268,7.2027 -10.9526,16.3154 -14.3449,26.7142 -3.2889,10.0805 -5.1289,21.3641 -5.1289,33.2846 l -0.001,1.0133 c 0.003,0.3169 0.008,0.6515 0.0155,1.0038 l -3e-4,0.0663 -3e-4,0.04 h 0.007 c 0,4.9016 0.3796,9.6908 1.0909,14.3241 0.7395,4.8128 1.8389,9.4662 3.2447,13.9106 1.2715,4.0196 2.6034,7.6939 4.0044,11.0221 1.405,3.337 2.8983,6.3798 4.4909,9.1288 0.1996,0.345 0.2589,0.7327 0.1951,1.0968 -1.4792,11.3694 -2.6663,19.0616 -5.0245,25.9688 -2.3807,6.9727 -5.9225,13.0747 -12.101,21.2115 -0.5426,0.7152 -1.563,0.8555 -2.2783,0.3129 -0.1307,-0.0993 -0.2421,-0.2143 -0.3337,-0.3405 -6.1655,-8.1227 -9.7026,-14.219 -12.0802,-21.1839 -2.3632,-6.9215 -3.5503,-14.6306 -5.0335,-26.0382 -0.0481,-0.3701 0.0321,-0.7271 0.2058,-1.0266 l -0.002,-8e-4 c 1.592,-2.749 3.0856,-5.7918 4.4906,-9.1288 1.4011,-3.3282 2.7327,-7.0025 4.0044,-11.0221 1.4059,-4.4441 2.5055,-9.0972 3.2447,-13.91 0.7114,-4.6334 1.0909,-9.4228 1.0909,-14.3247 h 0.006 l -3e-4,-0.0745 6e-4,-0.0318 h -6e-4 c 0.007,-0.3526 0.0121,-0.688 0.0152,-1.0038 l -0.001,-1.0133 c 0,-11.9205 -1.84,-23.2041 -5.1288,-33.2846 -3.4089,-10.4494 -8.3657,-19.6003 -14.4327,-26.8193 -0.1766,-0.2101 -0.291,-0.4522 -0.345,-0.703 l -0.006,0.001 c -1.6657,-7.6251 -3.1466,-15.1374 -4.1321,-21.8542 -0.9945,-6.7776 -1.4843,-12.7561 -1.1539,-17.2469 0.9697,-13.183 3.5253,-23.1589 8.2548,-32.693 4.7051,-9.4847 11.53,-18.4594 21.0742,-29.6986 0.5815,-0.6871 1.6103,-0.7729 2.2975,-0.1914 0.0767,0.0649 0.1462,0.1358 0.2078,0.2108 z m 18.1346,31.1216 c -4.354,-8.777 -10.6583,-17.1938 -19.3954,-27.5639 -8.7371,10.3698 -15.0417,18.7866 -19.3956,27.5639 -4.5333,9.1388 -6.9862,18.7441 -7.9231,31.4805 -0.3121,4.2395 0.1653,9.9838 1.128,16.5446 0.9552,6.5097 2.3906,13.8156 4.0109,21.2564 6.2203,7.496 11.2924,16.9011 14.7772,27.583 3.3954,10.4072 5.2952,22.0344 5.2952,34.2929 l -0.0118,1.0386 c -0.003,0.3644 -0.009,0.7108 -0.0152,1.0367 l 3e-4,0.0481 h 0.006 c 0,5.0593 -0.3931,10.0113 -1.1297,14.8094 -0.7665,4.9914 -1.9052,9.8109 -3.3595,14.4083 -1.2787,4.0412 -2.6477,7.8075 -4.1191,11.3027 -1.3856,3.2911 -2.8474,6.2971 -4.3938,9.0185 1.4216,10.89 2.5805,18.3002 4.822,24.8658 2.0917,6.1275 5.1556,11.5831 10.3077,18.5625 5.1519,-6.9794 8.2158,-12.435 10.3077,-18.5625 2.2412,-6.5656 3.4002,-13.9758 4.822,-24.8655 -1.5467,-2.7214 -3.0085,-5.7277 -4.3941,-9.0188 -1.4713,-3.4952 -2.8409,-7.2617 -4.1191,-11.3027 -1.4545,-4.598 -2.5927,-9.4175 -3.3594,-14.4088 -0.7367,-4.7982 -1.1298,-9.7499 -1.1298,-14.8089 h 0.007 v -0.007 l 3e-4,-0.0475 c -0.007,-0.3248 -0.0118,-0.6703 -0.0152,-1.0308 l -0.0118,-1.0386 c 0,-12.2585 1.8998,-23.8857 5.2953,-34.2929 3.4848,-10.6819 8.5568,-20.087 14.7771,-27.583 1.6201,-7.4411 3.0555,-14.7467 4.0109,-21.2564 0.9627,-6.5608 1.4401,-12.3051 1.1283,-16.5446 -0.9371,-12.7364 -3.3901,-22.3417 -7.9233,-31.4805 z m -14.0062,133.2127 -3e-4,0.0281" />
      <path
         id="path79"
         style="fill:#1b1918;fill-rule:evenodd"
         d="m 297.3221,480.3815 h -0.0458 c -0.728,-9.8924 -1.1533,-21.4575 -1.1344,-35.4761 V 303.4161 c -0.023,-28.0856 1.0129,-42.6652 1.1122,-45.0643 h 0.068 0.068 c 0.0993,2.3991 1.1352,16.9787 1.1121,45.0643 v 141.4893 c 0.0189,14.0186 -0.4064,25.5837 -1.1343,35.4761 z" />
      <path
         id="path81"
         style="fill:#ffffff;fill-rule:evenodd"
         d="m 355.576,322.0649 c 61.9917,0 51.1301,73.1441 3.01,65.9185 10.7632,-13.8763 -1.8229,-29.0099 -21.2225,-23.2528 -15.2374,4.523 -22.5063,24.7705 -22.5063,40.8468 0,9.9593 2.2222,19.1061 5.9312,26.2873 9.6732,18.2031 31.8302,13.8536 32.9336,3.0466 7.4588,0.8005 10.6776,8.6205 9.4066,16.4782 -3.4983,21.6214 -31.7724,21.0905 -43.9181,7.4187 -5.3453,-6.0172 -9.6512,-15.1551 -13.6258,-28.1092 -2.8065,-9.1461 -4.4122,-19.1452 -4.4122,-29.6193 0,-43.6387 24.3574,-79.0148 54.4035,-79.0148 z" />
      <path
         id="path83"
         style="fill:#1b1918;fill-rule:evenodd"
         d="m 355.576,320.3805 c 22.2445,0 35.469,9.2308 41.1705,20.9649 2.5997,5.3501 3.6271,11.2068 3.2265,16.9447 -0.4001,5.7361 -2.2238,11.3614 -5.324,16.2493 -6.6842,10.5377 -19.2716,17.6642 -36.2928,15.1086 -0.8916,-0.1307 -1.5118,-0.9821 -1.385,-1.9015 0.0489,-0.354 0.2016,-0.6667 0.4217,-0.9096 2.4164,-3.1519 3.5118,-6.3336 3.5189,-9.2423 0.006,-2.4864 -0.7853,-4.7948 -2.2232,-6.7214 -1.4708,-1.9704 -3.6226,-3.5585 -6.3005,-4.556 -3.9046,-1.4548 -8.9128,-1.6488 -14.5778,0.032 -6.4933,1.9277 -11.4686,6.966 -14.9714,13.3232 -4.2679,7.7457 -6.3477,17.4174 -6.3477,25.905 0,4.7642 0.5199,9.3289 1.4747,13.5611 l 0.0127,0.0619 c 0.9866,4.353 2.4293,8.3538 4.2367,11.8569 l 0.003,-0.002 c 2.8637,5.3886 6.8793,8.6507 11.0572,10.2686 3.0867,1.1955 6.2645,1.4997 9.1293,1.1064 2.803,-0.3847 5.2877,-1.4374 7.061,-2.9697 1.4832,-1.2816 2.4493,-2.8986 2.6352,-4.7206 0.0913,-0.9228 0.8918,-1.5945 1.7871,-1.5003 0.2013,0.0214 0.4259,0.0526 0.6708,0.0922 3.8917,0.6293 6.7211,2.9509 8.4613,6.1632 1.6698,3.0831 2.3067,6.9863 1.8816,10.9491 l -0.006,0.0492 c -0.0431,0.393 -0.0962,0.785 -0.1589,1.1722 -0.9031,5.5832 -3.3513,9.8145 -6.7346,12.8202 -2.8159,2.5018 -6.2588,4.1337 -9.9795,4.9741 -3.6552,0.8256 -7.5992,0.8866 -11.4875,0.2573 -7.0225,-1.1359 -13.8765,-4.5454 -18.5248,-9.7777 -2.7825,-3.1319 -5.2815,-7.0494 -7.5885,-11.8414 -2.2851,-4.7464 -4.3865,-10.3479 -6.3946,-16.8927 -1.4545,-4.7405 -2.5927,-9.7096 -3.3592,-14.8558 -0.7366,-4.9461 -1.1294,-10.0521 -1.1294,-15.2704 0,-22.1721 6.2065,-42.2724 16.2406,-56.8457 10.1471,-14.7377 24.2146,-23.8533 39.7967,-23.8533 z m 38.2599,22.4652 c -5.1935,-10.6881 -17.4533,-19.0962 -38.2599,-19.0962 -14.4639,0 -27.5987,8.5726 -37.1413,22.4323 -9.656,14.0239 -15.6283,33.4313 -15.6283,54.8977 0,5.0532 0.3796,9.9917 1.0912,14.7704 0.7392,4.9627 1.8386,9.7603 3.2444,14.3425 1.9663,6.4087 4.0056,11.8547 6.2029,16.4192 2.1757,4.5192 4.503,8.1803 7.0655,11.0648 4.1377,4.6576 10.2903,7.7007 16.6225,8.725 3.4848,0.5637 7.0214,0.5092 10.3004,-0.2314 3.2126,-0.7257 6.1607,-2.1127 8.5371,-4.224 2.8291,-2.5134 4.8819,-6.0856 5.6498,-10.8329 0.0537,-0.3324 0.099,-0.6622 0.1341,-0.9864 l 0.005,-0.0506 c 0.3529,-3.2894 -0.1493,-6.4815 -1.4857,-8.9487 -1.1204,-2.0692 -2.8516,-3.6291 -5.1755,-4.2744 -0.5854,2.0059 -1.7902,3.7629 -3.4387,5.1873 -2.2347,1.9314 -5.3082,3.2498 -8.7334,3.7199 -3.3644,0.4622 -7.0891,0.1074 -10.6993,-1.2909 -4.8488,-1.8776 -9.4906,-5.6284 -12.7679,-11.7953 l 0.003,-0.002 -0.01,-0.018 c -1.9465,-3.7691 -3.4958,-8.0496 -4.5473,-12.6838 l -0.0172,-0.0689 c -1.013,-4.4892 -1.5641,-9.3112 -1.5641,-14.3242 0,-9.0011 2.222,-19.2879 6.7818,-27.5633 3.8984,-7.0754 9.5072,-12.7044 16.9115,-14.9023 6.3578,-1.8863 12.065,-1.6364 16.5819,0.0467 3.2709,1.2186 5.9251,3.1924 7.7682,5.6616 1.876,2.5137 2.9081,5.5264 2.9003,8.7745 -0.007,2.9084 -0.8506,5.9897 -2.6734,9.0432 14.226,1.2611 24.7303,-4.9654 30.4234,-13.9406 2.7959,-4.4082 4.4399,-9.4774 4.8004,-14.6439 0.3604,-5.1656 -0.5567,-10.4227 -2.8817,-15.2076 z" />
      <path
         id="path85"
         style="fill:#1b1918;fill-rule:evenodd"
         d="m 305.034,384.9282 c -3.3371,11.8366 -2.9025,24.7126 0.0455,36.3593 13.552,53.5385 57.884,43.0168 49.9901,14.8417 5.1589,26.6482 -34.7565,34.6 -47.4133,-15.3972 -2.8594,-11.2971 -3.2879,-23.7627 -0.066,-35.1908 4.0859,-18.8794 23.0052,-45.145 46.3192,-42.7489 23.7361,2.777 28.27,27.3759 13.4473,41.4242 18.7363,-12.8083 11.8683,-45.338 -17.8389,-44.1127 -20.6588,0.8561 -39.3381,22.2335 -44.4839,44.8244 z" />
      <path
         id="path87"
         style="fill:#ffffff;fill-rule:evenodd"
         d="m 239.0369,322.0649 c -61.9916,0 -51.1301,73.1441 -3.01,65.9185 -10.7632,-13.8763 1.8229,-29.0099 21.2225,-23.2528 15.2374,4.523 22.5063,24.7705 22.5063,40.8468 0,9.9593 -2.2222,19.1061 -5.9312,26.2873 -9.6731,18.2031 -31.8302,13.8536 -32.9336,3.0466 -7.4588,0.8005 -10.6776,8.6205 -9.4065,16.4782 3.4982,21.6214 31.7723,21.0905 43.918,7.4187 5.3453,-6.0172 9.6513,-15.1551 13.6259,-28.1092 2.8064,-9.1461 4.4121,-19.1452 4.4121,-29.6193 0,-43.6387 -24.3574,-79.0148 -54.4035,-79.0148 z" />
      <path
         id="path89"
         style="fill:#1b1918;fill-rule:evenodd"
         d="m 239.0369,323.7495 c -20.8065,0 -33.0664,8.4081 -38.2599,19.0962 -2.3249,4.7849 -3.2421,10.042 -2.8817,15.2076 0.3605,5.1665 2.0045,10.2357 4.8004,14.6439 5.6932,8.9755 16.1974,15.2017 30.4234,13.9406 -1.8228,-3.0535 -2.6663,-6.1348 -2.6733,-9.0432 -0.008,-3.2481 1.0243,-6.2608 2.9002,-8.7745 1.8431,-2.4692 4.4973,-4.443 7.7682,-5.6616 4.517,-1.6831 10.2241,-1.933 16.5819,-0.0467 7.4044,2.1979 13.0131,7.8269 16.9115,14.9023 4.5598,8.2754 6.7819,18.5622 6.7819,27.5633 0,5.013 -0.5511,9.835 -1.5642,14.3242 l -0.0171,0.0689 c -1.0516,4.6342 -2.6009,8.9147 -4.5474,12.6838 l -0.01,0.018 0.003,0.002 c -3.2773,6.1669 -7.9191,9.9177 -12.7679,11.7953 -3.6102,1.3983 -7.3351,1.7528 -10.6993,1.2909 -3.4252,-0.4701 -6.4987,-1.7885 -8.7334,-3.7199 -1.6485,-1.4244 -2.8533,-3.1814 -3.4387,-5.1873 -2.3239,0.6453 -4.055,2.2052 -5.1755,4.2744 -1.3364,2.4672 -1.8386,5.6593 -1.4857,8.9487 l 0.005,0.0506 c 0.0351,0.3242 0.0804,0.654 0.1341,0.9864 0.7679,4.7473 2.8207,8.3195 5.6498,10.8329 2.3765,2.1113 5.3245,3.4983 8.5372,4.224 3.279,0.7406 6.8155,0.7951 10.3003,0.2314 6.3322,-1.0243 12.4848,-4.0674 16.6225,-8.725 2.5623,-2.8845 4.8898,-6.5456 7.0655,-11.0648 2.197,-4.5645 4.2367,-10.0105 6.2029,-16.4192 1.4058,-4.5822 2.5052,-9.3798 3.2444,-14.3425 0.7116,-4.7787 1.0912,-9.7172 1.0912,-14.7704 0,-21.4664 -5.9723,-40.8738 -15.6282,-54.8977 -9.5427,-13.8597 -22.6772,-22.4323 -37.1414,-22.4323 z m -41.1705,17.5959 c 5.7015,-11.7341 18.9261,-20.9649 41.1705,-20.9649 15.5818,0 29.6496,9.1156 39.7967,23.8533 10.0341,14.5733 16.2407,34.6736 16.2407,56.8457 0,5.2183 -0.3928,10.3243 -1.1295,15.2704 -0.7665,5.1462 -1.9046,10.1153 -3.3591,14.8558 -2.0081,6.5448 -4.1099,12.146 -6.3947,16.8927 -2.307,4.7922 -4.8063,8.7095 -7.5885,11.8414 -4.6482,5.2323 -11.5023,8.6418 -18.5248,9.7777 -3.8883,0.6293 -7.8323,0.5683 -11.4875,-0.2573 -3.7207,-0.8404 -7.1636,-2.4723 -9.9795,-4.9741 -3.3833,-3.0057 -5.8315,-7.237 -6.7346,-12.8202 -0.0627,-0.3872 -0.1158,-0.7792 -0.1588,-1.1722 l -0.006,-0.0492 c -0.4252,-3.9628 0.2117,-7.866 1.8815,-10.9491 1.7399,-3.212 4.5696,-5.5339 8.4613,-6.1632 0.2446,-0.0393 0.4695,-0.0708 0.6708,-0.0922 0.8953,-0.0942 1.6958,0.5775 1.7872,1.5003 0.1858,1.822 1.1519,3.439 2.6351,4.7206 1.7733,1.5323 4.258,2.585 7.061,2.9697 2.8648,0.3933 6.0426,0.0891 9.1293,-1.1064 4.1779,-1.6179 8.1935,-4.88 11.0572,-10.2686 l 0.003,0.002 c 1.8073,-3.5031 3.25,-7.5039 4.2366,-11.8569 l 0.0127,-0.0619 c 0.9548,-4.2322 1.4747,-8.7969 1.4747,-13.5611 0,-8.4876 -2.0798,-18.1593 -6.3477,-25.905 -3.5028,-6.3572 -8.4781,-11.3955 -14.9714,-13.3232 -5.665,-1.6808 -10.6732,-1.4868 -14.5778,-0.032 -2.6776,0.9975 -4.8297,2.5856 -6.3004,4.556 -1.4379,1.9266 -2.2292,4.235 -2.2233,6.7214 0.007,2.9087 1.1025,6.0904 3.5189,9.2423 0.2201,0.2429 0.3728,0.5556 0.4217,0.9096 0.1268,0.9194 -0.4934,1.7708 -1.385,1.9015 -17.0212,2.5556 -29.6086,-4.5709 -36.2928,-15.1086 -3.1002,-4.8879 -4.9238,-10.5132 -5.3239,-16.2493 -0.4007,-5.7379 0.6267,-11.5946 3.2264,-16.9447 z" />
      <path
         id="path91"
         style="fill:#1b1918;fill-rule:evenodd"
         d="m 289.579,384.9282 c 3.337,11.8366 2.9025,24.7126 -0.0456,36.3593 -13.552,53.5385 -57.884,43.0168 -49.9901,14.8417 -5.1589,26.6482 34.7565,34.6 47.4133,-15.3972 2.8594,-11.2971 3.2879,-23.7627 0.0661,-35.1908 -4.086,-18.8794 -23.0053,-45.145 -46.3192,-42.7489 -23.7362,2.777 -28.2701,27.3759 -13.4474,41.4242 -18.7363,-12.8083 -11.8683,-45.338 17.8389,-44.1127 20.6588,0.8561 39.3382,22.2335 44.484,44.8244 z" />
      <path
         id="path93"
         style="fill:#1b1918;fill-rule:evenodd"
         d="m 259.3512,433.444 c 4.3567,-4.8685 7.1568,-6.7436 13.6893,-7.6383 7.4555,-0.8072 14.96,0.191 22.3797,0.8986 11.178,1.0196 19.5229,1.4618 30.6687,-0.9823 6.4867,-1.6505 11.1707,-3.676 16.7739,-7.31 6.1949,-4.2625 10.2378,-9.5212 14.7101,-15.4899 -7.7472,-5.4455 -15.4945,-10.8916 -23.2418,-16.337 -2.2933,3.0603 -4.3627,5.3173 -7.5408,7.5029 -2.5284,1.64 -4.578,2.5025 -7.5046,3.2467 -7.117,1.5606 -13.8928,0.9435 -21.0747,0.2881 -10.2276,-0.9757 -18.3974,-0.7913 -28.7811,0.3316 -6.1738,0.8464 -10.7841,2.1326 -16.4093,4.8274 -6.2546,3.219 -10.395,6.5598 -15.0494,11.7619 z" />
      <path
         id="path95"
         style="fill:#ffffff;fill-rule:evenodd"
         d="m 249.278,422.0078 c 3.1109,-3.2309 5.8113,-5.3289 9.8278,-7.3891 4.1299,-1.9765 7.498,-2.883 12.0303,-3.5038 9.0078,-0.9744 16.8361,-0.009 25.7561,0.8434 9.1251,0.8315 16.5345,0.2489 25.6082,-1.7411 4.6087,-1.1723 7.9037,-2.5847 11.8847,-5.1665 4.147,-2.8472 6.9155,-5.618 10.0159,-9.5335 l -9.6323,-6.9246 c -2.233,2.8198 -4.1081,4.7203 -7.0952,6.7699 -2.6974,1.7489 -4.8915,2.6759 -8.0137,3.4702 -7.3538,1.6123 -14.1846,1.0021 -21.6019,0.3267 -10.0774,-0.9626 -18.2034,-0.7808 -28.4294,0.3257 -5.9861,0.8199 -10.446,2.0601 -15.9006,4.6732 -5.3885,2.7635 -9.0579,5.5798 -13.2316,9.9141 2.9276,2.6454 5.8548,5.2904 8.7817,7.9354 z" />
      <path
         id="path97"
         style="fill:#e30016;fill-rule:evenodd"
         d="m 259.2151,430.9863 c 1.8995,-1.9742 3.5226,-3.2733 5.9763,-4.5312 2.6137,-1.2527 4.7816,-1.7869 7.6505,-2.1801 7.577,-0.8196 15.1906,0.1733 22.7317,0.8934 10.9709,0.9998 19.2039,1.4539 30.1412,-0.9444 6.2911,-1.6011 10.8302,-3.5618 16.2648,-7.087 5.4474,-3.7377 9.4643,-8.6282 13.5362,-13.77 l -9.8634,-6.9181 c -3.2131,4.0574 -6.087,6.9256 -10.3844,9.8766 -4.1539,2.693 -7.5856,4.165 -12.3938,5.3894 -9.2977,2.0384 -16.7884,2.6315 -26.1352,1.7789 -8.7651,-0.8358 -16.5588,-1.8059 -25.4047,-0.8486 -4.3399,0.5954 -7.5662,1.4562 -11.5208,3.3497 -3.8358,1.9683 -6.4086,3.9702 -9.38,7.0568 2.9269,2.6446 5.8544,5.2893 8.7816,7.9346 z" />
    </g>
  </g>
  <path
     id="path101"
     style="fill:none"
     d="M 0,0 V 841.8898 H 595.2756 V 0 Z" />
</svg>
