<svg width="103" height="141" viewBox="0 0 103 141" fill="none" xmlns="http://www.w3.org/2000/svg">
<g filter="url(#filter0_d)">
<mask id="mask0" mask-type="alpha" maskUnits="userSpaceOnUse" x="10" y="-7" width="83" height="138">
<path d="M10 -7H93V131L51.5 105.909L10 131V-7Z" fill="#14008F"/>
</mask>
<g mask="url(#mask0)">
<mask id="mask1" mask-type="alpha" maskUnits="userSpaceOnUse" x="10" y="0" width="83" height="135">
<rect x="10" width="82.6794" height="135" fill="#C4C4C4"/>
</mask>
<g mask="url(#mask1)">
<rect x="10" width="82.6794" height="135" fill="#14008F"/>
<rect x="17.4711" width="7.9691" height="135" fill="#EAECFF"/>
<rect x="77.2393" width="7.9691" height="135" fill="#EAECFF"/>
<rect width="5.76759" height="49.0245" transform="matrix(0.610633 -0.791914 0.610633 0.791914 34.4053 -0.379913)" fill="#647AC9"/>
<rect width="5.76759" height="49.0245" transform="matrix(0.610633 0.791914 -0.610633 0.791914 64.3032 -5.16748)" fill="#647AC9"/>
<rect width="5.76759" height="49.0245" transform="matrix(0.610633 -0.791914 0.610633 0.791914 34.4053 34.5005)" fill="#647AC9"/>
<rect width="5.76759" height="49.0245" transform="matrix(0.610633 0.791914 -0.610633 0.791914 64.3032 29.713)" fill="#647AC9"/>
<rect width="5.76759" height="49.0245" transform="matrix(0.610633 -0.791914 0.610633 0.791914 34.4053 68.7349)" fill="#647AC9"/>
<rect width="5.76759" height="49.0245" transform="matrix(0.610633 0.791914 -0.610633 0.791914 64.3032 63.9473)" fill="#647AC9"/>
<rect width="5.76759" height="49.0245" transform="matrix(0.610633 -0.791914 0.610633 0.791914 34.4053 102.969)" fill="#647AC9"/>
<rect width="5.76759" height="49.0245" transform="matrix(0.610633 0.791914 -0.610633 0.791914 64.3032 98.1818)" fill="#647AC9"/>
</g>
</g>
</g>
<defs>
<filter id="filter0_d" x="0" y="-10" width="102.679" height="151" filterUnits="userSpaceOnUse" color-interpolation-filters="sRGB">
<feFlood flood-opacity="0" result="BackgroundImageFix"/>
<feColorMatrix in="SourceAlpha" type="matrix" values="0 0 0 0 0 0 0 0 0 0 0 0 0 0 0 0 0 0 127 0"/>
<feOffset/>
<feGaussianBlur stdDeviation="5"/>
<feColorMatrix type="matrix" values="0 0 0 0 0.0787499 0 0 0 0 0 0 0 0 0 0.5625 0 0 0 0.3 0"/>
<feBlend mode="normal" in2="BackgroundImageFix" result="effect1_dropShadow"/>
<feBlend mode="normal" in="SourceGraphic" in2="effect1_dropShadow" result="shape"/>
</filter>
</defs>
</svg>
