<svg width="164" height="109" viewBox="0 0 164 109" fill="none" xmlns="http://www.w3.org/2000/svg">
<path d="M114.502 66.7863C114.502 68.7863 114.502 105.286 114.502 105.286C91.5018 93.7863 67.0017 91.7863 40.0017 105.286C44.0017 92.2863 43.0017 82.7863 40.0017 72.2863C26.5014 126.286 -25.9986 57.2863 24.5017 33.2863C24.5017 33.2863 12.7869 39.2863 13.0012 38.2863C23.5012 -10.7137 85.0013 2.78625 97.0014 11.7863C97.0014 10.7863 85.5013 4.78631 85.5013 4.78631C96.168 3.28631 119.501 4.78625 127.501 22.7863C122.701 27.5863 115.835 29.7863 113.001 30.2863C173.501 9.78625 179.001 114.786 116.501 88.2863V62.2863C106.668 57.9529 79.301 55.4863 60.5013 62.2863C60.5013 62.2863 96.0013 53.7863 114.502 66.7863Z" stroke="black" stroke-width="6" stroke-linejoin="round"/>
</svg>
