<svg width="189" height="132" viewBox="0 0 189 132" fill="none" xmlns="http://www.w3.org/2000/svg">
<path d="M67.8548 117.259L57.5366 106.194L105.268 61.6839L120.037 77.522C118.593 79.6628 112.269 77.3115 110.085 79.8991C98.8814 93.1749 79.4975 110.815 67.8548 117.259Z" fill="black"/>
<path d="M123.057 81.1956L105.051 61.8863L152.639 17.509L152.64 17.5089C158.178 12.3444 165.154 5.83886 171.496 4.3865C179.223 23.5469 156.903 49.634 123.057 81.1956Z" fill="white" stroke="black" stroke-width="1.77993"/>
<circle r="8.60299" transform="matrix(-0.731354 0.681999 0.681998 0.731354 63.4038 112.486)" fill="black"/>
<circle r="3.2632" transform="matrix(-0.731354 0.681999 0.681998 0.731354 63.4038 112.486)" fill="white"/>
<path d="M122.912 78.4297L120.64 75.9935C120.64 75.9935 164.931 36.5575 170.743 7.92847C177.036 30.563 122.912 78.4297 122.912 78.4297Z" fill="#E4E4E4"/>
<path d="M121.422 117.259L131.741 106.194L84.0094 61.6839L69.2402 77.522C70.6845 79.6628 77.0084 77.3115 79.1922 79.8991C90.3958 93.1749 109.78 110.815 121.422 117.259Z" fill="black"/>
<path d="M66.2201 81.1956L84.2263 61.8863L36.6377 17.509L36.6376 17.5089C31.0993 12.3444 24.123 5.83886 17.7809 4.3865C10.0541 23.5469 32.3744 49.634 66.2201 81.1956Z" fill="white" stroke="black" stroke-width="1.77993"/>
<ellipse cx="125.873" cy="112.486" rx="8.60299" ry="8.603" transform="rotate(43 125.873 112.486)" fill="black"/>
<ellipse cx="125.873" cy="112.486" rx="3.2632" ry="3.26321" transform="rotate(43 125.873 112.486)" fill="white"/>
<path d="M66.3656 78.4297L68.6374 75.9935C68.6374 75.9935 24.346 36.5575 18.5342 7.92847C12.2413 30.563 66.3656 78.4297 66.3656 78.4297Z" fill="#E4E4E4"/>
</svg>
